<svg width="42" height="42" viewBox="0 0 42 42" xmlns="http://www.w3.org/2000/svg">
<path d="M21 39C11.0586 39 3 30.9414 3 21C3 11.0586 11.0586 3 21 3C30.9414 3 39 11.0586 39 21C39 30.9414 30.9414 39 21 39ZM12.0234 32.2608C14.5714 34.2979 17.7378 35.4052 21 35.4C24.546 35.4 27.7914 34.1184 30.3006 31.9944C29.1283 30.7915 27.7267 29.836 26.1787 29.1843C24.6306 28.5325 22.9676 28.1978 21.288 28.2C19.5467 28.198 17.8239 28.5579 16.229 29.257C14.6342 29.956 13.202 30.9789 12.0234 32.2608V32.2608ZM9.5088 29.676C11.0216 28.0705 12.8472 26.7919 14.873 25.9189C16.8989 25.0459 19.0821 24.597 21.288 24.6C23.415 24.5972 25.5215 25.0147 27.4867 25.8283C29.4519 26.6419 31.2371 27.8357 32.7396 29.3412C34.2805 27.1724 35.1905 24.6191 35.3686 21.9646C35.5467 19.3101 34.9859 16.6582 33.7485 14.303C32.511 11.9478 30.6453 9.98152 28.3583 8.6222C26.0713 7.26288 23.4525 6.56371 20.7923 6.60225C18.1321 6.6408 15.5346 7.41555 13.2879 8.84056C11.0413 10.2656 9.23333 12.2851 8.06464 14.6752C6.89596 17.0652 6.41225 19.7323 6.66717 22.3805C6.92209 25.0287 7.90567 27.5546 9.5088 29.6778V29.676ZM21 22.8C19.0904 22.8 17.2591 22.0414 15.9088 20.6912C14.5586 19.3409 13.8 17.5096 13.8 15.6C13.8 13.6904 14.5586 11.8591 15.9088 10.5088C17.2591 9.15857 19.0904 8.4 21 8.4C22.9096 8.4 24.7409 9.15857 26.0912 10.5088C27.4414 11.8591 28.2 13.6904 28.2 15.6C28.2 17.5096 27.4414 19.3409 26.0912 20.6912C24.7409 22.0414 22.9096 22.8 21 22.8ZM21 19.2C21.9548 19.2 22.8705 18.8207 23.5456 18.1456C24.2207 17.4705 24.6 16.5548 24.6 15.6C24.6 14.6452 24.2207 13.7295 23.5456 13.0544C22.8705 12.3793 21.9548 12 21 12C20.0452 12 19.1295 12.3793 18.4544 13.0544C17.7793 13.7295 17.4 14.6452 17.4 15.6C17.4 16.5548 17.7793 17.4705 18.4544 18.1456C19.1295 18.8207 20.0452 19.2 21 19.2Z"/>
</svg>
