<svg width="42" height="37" viewBox="0 0 42 37" xmlns="http://www.w3.org/2000/svg">
<g clip-path="url(#clip0_161:89)">
<path d="M10.4328 13.1143V9.78096C10.4328 7.57083 11.4571 5.45121 13.2804 3.88841C15.1037 2.32561 17.5765 1.44763 20.155 1.44763C22.7335 1.44763 25.2064 2.32561 27.0297 3.88841C28.8529 5.45121 29.8773 7.57083 29.8773 9.78096V13.1143H35.7106C36.2263 13.1143 36.7209 13.2899 37.0855 13.6025C37.4502 13.915 37.655 14.3389 37.655 14.781V34.781C37.655 35.223 37.4502 35.6469 37.0855 35.9595C36.7209 36.272 36.2263 36.4476 35.7106 36.4476H4.59947C4.08377 36.4476 3.5892 36.272 3.22454 35.9595C2.85989 35.6469 2.65503 35.223 2.65503 34.781V14.781C2.65503 14.3389 2.85989 13.915 3.22454 13.6025C3.5892 13.2899 4.08377 13.1143 4.59947 13.1143H10.4328ZM10.4328 16.4476H6.54392V33.1143H33.7661V16.4476H29.8773V19.781H25.9884V16.4476H14.3217V19.781H10.4328V16.4476ZM14.3217 13.1143H25.9884V9.78096C25.9884 8.45488 25.3738 7.18311 24.2798 6.24543C23.1859 5.30775 21.7021 4.78097 20.155 4.78097C18.6079 4.78097 17.1242 5.30775 16.0302 6.24543C14.9363 7.18311 14.3217 8.45488 14.3217 9.78096V13.1143Z"/>
</g>
<defs>
<clipPath id="clip0_161:89">
<rect width="41.0363" height="35.2532" fill="#f0f0f0" transform="translate(0 0.90686)"/>
</clipPath>
</defs>
</svg>
