<svg width="32" height="32" viewBox="0 0 32 32" fill="none" xmlns="http://www.w3.org/2000/svg">
<path d="M12.6571 3.27026C15.2184 3.27026 17.6747 4.32684 19.4858 6.20756C21.2968 8.08829 22.3143 10.6391 22.3143 13.2988C22.3143 15.7828 21.4377 18.0663 19.9966 19.8251L20.3977 20.2417H21.5714L29 27.956L26.7714 30.2703L19.3429 22.556V21.3371L18.9417 20.9205C17.248 22.4171 15.0491 23.3274 12.6571 23.3274C10.0959 23.3274 7.63958 22.2708 5.82851 20.3901C4.01745 18.5094 3 15.9586 3 13.2988C3 10.6391 4.01745 8.08829 5.82851 6.20756C7.63958 4.32684 10.0959 3.27026 12.6571 3.27026V3.27026ZM12.6571 6.35598C8.94286 6.35598 5.97143 9.44169 5.97143 13.2988C5.97143 17.156 8.94286 20.2417 12.6571 20.2417C16.3714 20.2417 19.3429 17.156 19.3429 13.2988C19.3429 9.44169 16.3714 6.35598 12.6571 6.35598Z" fill="white"/>
</svg>
