<svg width="16" height="16" viewBox="0 0 16 16" fill="none" xmlns="http://www.w3.org/2000/svg">
<path d="M5.3335 5.33337L5.3335 4.66671C5.3335 3.19395 6.5274 2.00004 8.00016 2.00004V2.00004C9.47292 2.00004 10.6668 3.19395 10.6668 4.66671L10.6668 5.33337" stroke="#131212" stroke-width="2" stroke-linecap="round"/>
<path fill-rule="evenodd" clip-rule="evenodd" d="M2.26795 5.66663C2 6.13073 2 6.7538 2 7.99996V8.66663C2 10.5304 2 11.4623 2.30448 12.1974C2.71046 13.1775 3.48915 13.9562 4.46927 14.3621C5.20435 14.6666 6.13623 14.6666 8 14.6666C9.86377 14.6666 10.7956 14.6666 11.5307 14.3621C12.5108 13.9562 13.2895 13.1775 13.6955 12.1974C14 11.4623 14 10.5304 14 8.66663V7.99996C14 6.7538 14 6.13073 13.7321 5.66663C13.5565 5.36259 13.304 5.11011 13 4.93458C12.5359 4.66663 11.9128 4.66663 10.6667 4.66663H5.33333C4.08718 4.66663 3.4641 4.66663 3 4.93458C2.69596 5.11011 2.44349 5.36259 2.26795 5.66663ZM7 7.99996C7 7.44767 6.55228 6.99996 6 6.99996C5.44772 6.99996 5 7.44767 5 7.99996V9.33329C5 9.88558 5.44772 10.3333 6 10.3333C6.55228 10.3333 7 9.88558 7 9.33329V7.99996ZM11 7.99996C11 7.44767 10.5523 6.99996 10 6.99996C9.44772 6.99996 9 7.44767 9 7.99996V9.33329C9 9.88558 9.44772 10.3333 10 10.3333C10.5523 10.3333 11 9.88558 11 9.33329V7.99996Z" fill="#131212"/>
</svg>
