<svg width="43" height="43" viewBox="0 0 43 43" xmlns="http://www.w3.org/2000/svg">
<path d="M15.8076 13.7931V11.0907H18.419V13.7931H15.8076Z" />
<path d="M23.5181 10.587H10.7021C10.563 10.587 10.4502 10.4742 10.4502 10.3351V5.62659C10.4502 5.48744 10.563 5.37463 10.7021 5.37463H23.5181C23.6573 5.37463 23.7701 5.48744 23.7701 5.62659V10.3351C23.7701 10.4742 23.6573 10.587 23.5181 10.587ZM22.7623 9.57926V6.38242H11.458V9.57926H22.7623Z" />
<path fill-rule="evenodd" clip-rule="evenodd" d="M21.501 32.9772C21.794 32.9772 22.0593 33.096 22.2513 33.288C22.4432 33.48 22.5621 33.7453 22.5621 34.0382C22.5621 34.3312 22.4432 34.5965 22.2513 34.7885C22.0593 34.9805 21.794 35.0993 21.501 35.0993C21.208 35.0993 20.9427 34.9805 20.7507 34.7885C20.5588 34.5965 20.4399 34.3312 20.4399 34.0382C20.4399 33.7453 20.5588 33.48 20.7507 33.288C20.9427 33.096 21.208 32.9772 21.501 32.9772ZM32.9133 30.4515H10.0887C9.63301 30.4515 9.21892 30.6378 8.91889 30.9378C8.61888 31.2379 8.43262 31.6519 8.43262 32.1076V35.9688C8.43262 36.4245 8.61888 36.8386 8.91889 37.1387C9.21893 37.4387 9.63302 37.6249 10.0887 37.6249H32.9133C33.369 37.6249 33.7831 37.4387 34.0831 37.1386C34.3831 36.8386 34.5694 36.4245 34.5694 35.9688V32.1076C34.5694 31.6519 34.3831 31.2378 34.0831 30.9378C33.7831 30.6378 33.369 30.4515 32.9133 30.4515V30.4515Z" />
<path fill-rule="evenodd" clip-rule="evenodd" d="M27.9601 23.2918C27.9601 23.1526 28.0729 23.0398 28.2121 23.0398H29.5437C29.6829 23.0398 29.7957 23.1526 29.7957 23.2918V24.6234C29.7957 24.7626 29.6829 24.8754 29.5437 24.8754H28.2121C28.0729 24.8754 27.9601 24.7626 27.9601 24.6234V23.2918ZM25.6106 26.8325C25.7497 26.8325 25.8625 26.9453 25.8625 27.0845V28.4161C25.8625 28.5553 25.7497 28.6681 25.6106 28.6681H24.2789C24.1398 28.6681 24.027 28.5553 24.027 28.4161V27.0845C24.027 26.9453 24.1398 26.8325 24.2789 26.8325H25.6106ZM10.0909 29.9471H32.9155C33.0002 29.9471 33.0843 29.9521 33.1675 29.9619V15.6727C33.1675 15.2941 33.0127 14.9501 32.7635 14.7009C32.5143 14.4517 32.1703 14.297 31.7918 14.297H11.0017C10.6231 14.297 10.2791 14.4517 10.0299 14.7009C9.78069 14.9501 9.62598 15.2941 9.62598 15.6727V29.9979C9.77732 29.9644 9.93308 29.9471 10.0909 29.9471V29.9471ZM29.1825 16.7234V21.432C29.1825 21.5711 29.0697 21.6839 28.9305 21.6839H13.8629C13.7237 21.6839 13.6109 21.5711 13.6109 21.432V16.7234C13.6109 16.5843 13.7237 16.4715 13.8629 16.4715H28.9305C29.0697 16.4715 29.1825 16.5843 29.1825 16.7234ZM28.2121 26.8325H29.5437C29.6829 26.8325 29.7957 26.9453 29.7957 27.0844V28.4161C29.7957 28.5552 29.6829 28.6681 29.5437 28.6681H28.2121C28.0729 28.6681 27.9601 28.5552 27.9601 28.4161V27.0844C27.9601 26.9453 28.0729 26.8325 28.2121 26.8325ZM24.2789 23.0398H25.6106C25.7497 23.0398 25.8625 23.1526 25.8625 23.2918V24.6234C25.8625 24.7626 25.7497 24.8754 25.6106 24.8754H24.2789C24.1398 24.8754 24.027 24.7626 24.027 24.6234V23.2918C24.027 23.1526 24.1398 23.0398 24.2789 23.0398ZM20.3458 26.8325H21.6774C21.8165 26.8325 21.9293 26.9453 21.9293 27.0844V28.4161C21.9293 28.5552 21.8165 28.6681 21.6774 28.6681H20.3458C20.2066 28.6681 20.0938 28.5552 20.0938 28.4161V27.0844C20.0938 26.9453 20.2066 26.8325 20.3458 26.8325ZM20.3458 23.0398H21.6774C21.8165 23.0398 21.9293 23.1526 21.9293 23.2918V24.6234C21.9293 24.7626 21.8165 24.8754 21.6774 24.8754H20.3458C20.2066 24.8754 20.0938 24.7626 20.0938 24.6234V23.2918C20.0938 23.1526 20.2066 23.0398 20.3458 23.0398ZM16.4126 26.8325H17.7442C17.8834 26.8325 17.9962 26.9453 17.9962 27.0844V28.4161C17.9962 28.5552 17.8834 28.6681 17.7442 28.6681H16.4126C16.2734 28.6681 16.1606 28.5552 16.1606 28.4161V27.0844C16.1606 26.9453 16.2734 26.8325 16.4126 26.8325ZM16.4126 23.0398H17.7442C17.8834 23.0398 17.9962 23.1526 17.9962 23.2918V24.6234C17.9962 24.7626 17.8834 24.8754 17.7442 24.8754H16.4126C16.2734 24.8754 16.1606 24.7626 16.1606 24.6234V23.2918C16.1606 23.1526 16.2734 23.0398 16.4126 23.0398ZM12.4794 26.8325H13.8111C13.9502 26.8325 14.063 26.9453 14.063 27.0844V28.4161C14.063 28.5552 13.9502 28.6681 13.8111 28.6681H12.4794C12.3403 28.6681 12.2275 28.5552 12.2275 28.4161V27.0844C12.2275 26.9453 12.3403 26.8325 12.4794 26.8325V26.8325ZM12.4794 23.0398H13.8111C13.9502 23.0398 14.063 23.1526 14.063 23.2918V24.6234C14.063 24.7626 13.9502 24.8754 13.8111 24.8754H12.4794C12.3403 24.8754 12.2275 24.7626 12.2275 24.6234V23.2918C12.2275 23.1526 12.3403 23.0398 12.4794 23.0398V23.0398Z" />
</svg>
