<svg width="50" height="32" viewBox="0 0 50 32" fill="none" xmlns="http://www.w3.org/2000/svg">
<rect width="50" height="32" rx="3" fill="white"/>
<mask id="mask0_515_464" style="mask-type:alpha" maskUnits="userSpaceOnUse" x="0" y="0" width="50" height="32">
<rect width="50" height="32" rx="3" fill="white"/>
</mask>
<g mask="url(#mask0_515_464)">
<path d="M14.4531 32H48.3594C49.2578 32 50 31.2578 50 30.3594V18.875C46.7578 20.9453 34.4922 28.0547 14.4531 32Z" fill="#F58220"/>
</g>
<path d="M7.72173 12.9725H6V18.9856H7.71261C8.62327 18.9856 9.28087 18.7708 9.85808 18.2914C10.544 17.7238 10.9497 16.8682 10.9497 15.9832C10.9499 14.2088 9.62393 12.9725 7.72173 12.9725ZM9.09195 17.4897C8.72335 17.8225 8.24477 17.9676 7.48691 17.9676H7.17218V13.9914H7.48691C8.24477 13.9914 8.70462 14.1269 9.09195 14.4776C9.49763 14.8387 9.74158 15.3986 9.74158 15.9744C9.74158 16.5518 9.49763 17.1287 9.09195 17.4897Z" fill="#231F20"/>
<path d="M12.6622 12.9725H11.4893V18.9856H12.6622V12.9725Z" fill="#231F20"/>
<path d="M15.5306 15.2801C14.8268 15.0197 14.6201 14.8479 14.6201 14.5231C14.6201 14.1442 14.9883 13.8565 15.4938 13.8565C15.8453 13.8565 16.134 14.0009 16.4396 14.3435L17.0533 13.5399C16.549 13.0987 15.9456 12.8732 15.2864 12.8732C14.2224 12.8732 13.4109 13.612 13.4109 14.5962C13.4109 15.4246 13.7887 15.8487 14.8903 16.2451C15.3496 16.407 15.5832 16.5149 15.7012 16.5875C15.9355 16.7405 16.0529 16.9572 16.0529 17.2096C16.0529 17.6968 15.6655 18.0578 15.1422 18.0578C14.5828 18.0578 14.1321 17.778 13.8622 17.2558L13.1045 17.9855C13.6449 18.7788 14.2939 19.1304 15.1864 19.1304C16.4052 19.1304 17.2603 18.32 17.2603 17.1559C17.2601 16.2005 16.8649 15.768 15.5306 15.2801Z" fill="#231F20"/>
<path d="M17.6299 15.9832C17.6299 17.7507 19.0179 19.1212 20.8039 19.1212C21.3088 19.1212 21.7412 19.0219 22.2744 18.7708V17.3901C21.8055 17.8595 21.3902 18.0487 20.8585 18.0487C19.6772 18.0487 18.8388 17.1922 18.8388 15.9745C18.8388 14.8201 19.7038 13.9092 20.804 13.9092C21.3635 13.9092 21.7869 14.1089 22.2746 14.5858V13.2057C21.7598 12.9445 21.3365 12.8363 20.8317 12.8363C19.0544 12.8366 17.6299 14.235 17.6299 15.9832Z" fill="#231F20"/>
<path d="M31.5744 17.0115L29.9708 12.9725H28.6895L31.2415 19.1399H31.8726L34.4703 12.9725H33.1988L31.5744 17.0115Z" fill="#231F20"/>
<path d="M35.001 18.9856H38.3274V17.9678H36.173V16.3447H38.2479V15.3261H36.173V13.9914H38.3274V12.9725H35.001V18.9856Z" fill="#231F20"/>
<path d="M42.9707 14.7477C42.9707 13.6219 42.1953 12.9725 40.8426 12.9725H39.1035V18.9856H40.275V16.5701H40.428L42.0514 18.9857H43.4939L41.601 16.4523C42.4843 16.2727 42.9707 15.6684 42.9707 14.7477ZM40.6177 15.7409H40.2751V13.9196H40.6362C41.3667 13.9196 41.7639 14.2257 41.7639 14.8109C41.7639 15.4155 41.3668 15.7409 40.6177 15.7409Z" fill="#231F20"/>
<path d="M25.8561 19.1988C27.6228 19.1988 29.0549 17.7667 29.0549 16C29.0549 14.2333 27.6228 12.8011 25.8561 12.8011C24.0894 12.8011 22.6572 14.2333 22.6572 16C22.6572 17.7667 24.0894 19.1988 25.8561 19.1988Z" fill="url(#paint0_linear_515_464)"/>
<path opacity="0.65" d="M25.8561 19.1988C27.6228 19.1988 29.0549 17.7667 29.0549 16C29.0549 14.2333 27.6228 12.8011 25.8561 12.8011C24.0894 12.8011 22.6572 14.2333 22.6572 16C22.6572 17.7667 24.0894 19.1988 25.8561 19.1988Z" fill="url(#paint1_linear_515_464)"/>
<path d="M43.7195 13.1985C43.7195 13.093 43.6469 13.0354 43.5193 13.0354H43.3496V13.5639H43.4757V13.3589L43.6236 13.5639H43.7776L43.6037 13.346C43.6785 13.326 43.7195 13.2719 43.7195 13.1985ZM43.4971 13.2707H43.4758V13.1325H43.4985C43.5608 13.1325 43.5934 13.155 43.5934 13.2005C43.5934 13.2471 43.5604 13.2707 43.4971 13.2707Z" fill="#231F20"/>
<path d="M43.5453 12.8381C43.2887 12.8381 43.085 13.0429 43.085 13.2988C43.085 13.5547 43.291 13.7597 43.5453 13.7597C43.7953 13.7597 44.0001 13.5524 44.0001 13.2988C44.0001 13.0463 43.7952 12.8381 43.5453 12.8381ZM43.5433 13.6773C43.3413 13.6773 43.1761 13.5092 43.1761 13.2995C43.1761 13.0891 43.3392 12.9211 43.5433 12.9211C43.7443 12.9211 43.9081 13.0929 43.9081 13.2995C43.9081 13.5074 43.7445 13.6773 43.5433 13.6773Z" fill="#231F20"/>
<defs>
<linearGradient id="paint0_linear_515_464" x1="27.4935" y1="18.5636" x2="25.2786" y2="15.0958" gradientUnits="userSpaceOnUse">
<stop stop-color="#F89F21"/>
<stop offset="0.2502" stop-color="#F79A23"/>
<stop offset="0.5331" stop-color="#F78E22"/>
<stop offset="0.6196" stop-color="#F68721"/>
<stop offset="0.7232" stop-color="#F48220"/>
<stop offset="1" stop-color="#F27623"/>
</linearGradient>
<linearGradient id="paint1_linear_515_464" x1="27.1436" y1="18.5165" x2="23.9065" y2="12.1894" gradientUnits="userSpaceOnUse">
<stop stop-color="#F68721" stop-opacity="0"/>
<stop offset="0.3587" stop-color="#E27027" stop-opacity="0.2704"/>
<stop offset="0.703" stop-color="#D4612C" stop-opacity="0.5299"/>
<stop offset="0.9816" stop-color="#D15D2D" stop-opacity="0.74"/>
</linearGradient>
</defs>
</svg>
