<svg width="50" height="32" viewBox="0 0 50 32" fill="none" xmlns="http://www.w3.org/2000/svg">
<rect width="50" height="32" rx="3" fill="white"/>
<path d="M23.9716 16.8272V21.2504H22.5684V10.3271H26.2899C26.7342 10.3178 27.1758 10.3966 27.5895 10.5589C28.0031 10.7212 28.3805 10.9638 28.6998 11.2727C29.0224 11.5629 29.2791 11.9187 29.4528 12.3163C29.6264 12.714 29.7129 13.1442 29.7065 13.578C29.7157 14.0141 29.6305 14.4471 29.4568 14.8473C29.283 15.2475 29.0248 15.6053 28.6998 15.8964C28.0491 16.5169 27.2458 16.8269 26.2899 16.8263H23.9716V16.8272ZM23.9716 11.6719V15.485H26.3248C26.5828 15.4926 26.8395 15.4463 27.0786 15.3491C27.3177 15.2518 27.5338 15.1058 27.7132 14.9202C27.8917 14.7467 28.0335 14.5392 28.1304 14.3099C28.2272 14.0807 28.2771 13.8343 28.2771 13.5854C28.2771 13.3365 28.2272 13.0901 28.1304 12.8609C28.0335 12.6316 27.8917 12.4241 27.7132 12.2506C27.5361 12.0611 27.3207 11.9115 27.0813 11.8115C26.842 11.7116 26.5841 11.6637 26.3248 11.671H23.9716V11.6719Z" fill="#5F6368"/>
<path d="M32.9402 13.5326C33.9773 13.5326 34.796 13.8098 35.3963 14.3641C35.9965 14.9184 36.2963 15.6784 36.2957 16.6441V21.2504H34.9535V20.2132H34.8925C34.3114 21.0673 33.5387 21.4944 32.5741 21.4944C31.7508 21.4944 31.062 21.2504 30.5076 20.7623C30.2416 20.5383 30.0289 20.2577 29.8851 19.9411C29.7413 19.6244 29.6699 19.2797 29.6762 18.932C29.6762 18.1586 29.9684 17.5436 30.553 17.0869C31.1375 16.6302 31.9178 16.4013 32.894 16.4001C33.7272 16.4001 34.4134 16.5526 34.9526 16.8577V16.5369C34.9542 16.2999 34.903 16.0654 34.8028 15.8506C34.7025 15.6358 34.5557 15.446 34.373 15.2949C34.002 14.9602 33.5184 14.7775 33.0186 14.7833C32.2348 14.7833 31.6145 15.1139 31.1578 15.7752L29.9219 14.9969C30.6018 14.0207 31.6078 13.5326 32.9402 13.5326ZM31.1247 18.9625C31.1238 19.1411 31.1655 19.3173 31.2465 19.4765C31.3274 19.6357 31.4452 19.7732 31.5901 19.8776C31.9005 20.1218 32.2857 20.2511 32.6805 20.2437C33.2726 20.2427 33.8402 20.007 34.2589 19.5883C34.7237 19.1508 34.9561 18.6374 34.9561 18.0482C34.5186 17.6996 33.9085 17.5253 33.1258 17.5253C32.5558 17.5253 32.0805 17.6627 31.6999 17.9375C31.3156 18.2164 31.1247 18.5555 31.1247 18.9625V18.9625Z" fill="#5F6368"/>
<path d="M43.9997 13.7767L39.3142 24.5449H37.8656L39.6044 20.7771L36.5234 13.7767H38.0487L40.2755 19.1456H40.306L42.4719 13.7767H43.9997Z" fill="#5F6368"/>
<path d="M18.3014 15.8737C18.3019 15.446 18.2658 15.0192 18.1933 14.5977H12.2754V17.0146H15.6649C15.5956 17.4006 15.4487 17.7685 15.2333 18.0963C15.0179 18.424 14.7384 18.7047 14.4116 18.9215V20.4904H16.4345C17.619 19.3983 18.3014 17.7833 18.3014 15.8737Z" fill="#4285F4"/>
<path d="M12.2748 22.006C13.9682 22.006 15.3941 21.45 16.4339 20.4913L14.411 18.9224C13.8479 19.3042 13.1228 19.5221 12.2748 19.5221C10.638 19.5221 9.24868 18.4187 8.75188 16.9318H6.66797V18.5485C7.19027 19.5879 7.99116 20.4616 8.98123 21.0721C9.97129 21.6826 11.1116 22.006 12.2748 22.006V22.006Z" fill="#34A853"/>
<path d="M8.75212 16.9318C8.48948 16.1527 8.48948 15.3089 8.75212 14.5298V12.913H6.6682C6.22883 13.7874 6 14.7523 6 15.7308C6 16.7093 6.22883 17.6743 6.6682 18.5486L8.75212 16.9318Z" fill="#FBBC04"/>
<path d="M12.2748 11.9395C13.1697 11.9248 14.0344 12.263 14.682 12.8807L16.4731 11.0897C15.3374 10.0229 13.8328 9.43729 12.2748 9.45549C11.1116 9.45554 9.97129 9.77889 8.98123 10.3894C7.99116 11 7.19027 11.8737 6.66797 12.913L8.75188 14.5297C9.24868 13.0429 10.638 11.9395 12.2748 11.9395Z" fill="#EA4335"/>
</svg>
