<svg width="45" height="45" viewBox="0 0 45 45" fill="none" xmlns="http://www.w3.org/2000/svg">
<path d="M43.5058 20.7687C43.1924 20.7664 42.8874 20.6514 42.6335 20.4399L22.4519 3.85913L2.2702 20.4399C1.94642 20.6606 1.56252 20.7336 1.19428 20.6444C0.826038 20.5553 0.500219 20.3105 0.281142 19.9583C0.0620647 19.6062 -0.0343498 19.1724 0.0109319 18.7424C0.0562136 18.3125 0.239901 17.9177 0.525731 17.6361L21.5796 0.328364C21.8343 0.11966 22.1392 0.00750732 22.4519 0.00750732C22.7645 0.00750732 23.0694 0.11966 23.3241 0.328364L44.378 17.6361C44.6348 17.85 44.8262 18.1518 44.9251 18.4984C45.0239 18.8451 45.025 19.2188 44.9283 19.5662C44.8315 19.9136 44.6419 20.2169 44.3864 20.4329C44.131 20.6489 43.8228 20.7664 43.5058 20.7687Z" fill="black"/>
<path d="M5.9101 10.3846C5.51125 10.3846 5.12874 10.2023 4.84672 9.87768C4.56469 9.5531 4.40625 9.11287 4.40625 8.65385V1.73077C4.40625 1.27174 4.56469 0.831513 4.84672 0.50693C5.12874 0.182348 5.51125 0 5.9101 0H11.9255C12.3243 0 12.7069 0.182348 12.9889 0.50693C13.2709 0.831513 13.4294 1.27174 13.4294 1.73077C13.4294 2.1898 13.2709 2.63003 12.9889 2.95461C12.7069 3.27919 12.3243 3.46154 11.9255 3.46154H7.41395V8.65385C7.41395 9.11287 7.25551 9.5531 6.97348 9.87768C6.69146 10.2023 6.30895 10.3846 5.9101 10.3846Z" fill="black"/>
<path d="M35.9871 45H28.4679C28.069 45 27.6865 44.8177 27.4045 44.4931C27.1224 44.1685 26.964 43.7283 26.964 43.2693V31.1539H17.9409V43.2693C17.9409 43.7283 17.7825 44.1685 17.5004 44.4931C17.2184 44.8177 16.8359 45 16.4371 45H8.9178C7.72126 45 6.57373 44.453 5.72765 43.4792C4.88157 42.5055 4.40625 41.1848 4.40625 39.8077V22.5C4.40625 22.041 4.56469 21.6008 4.84672 21.2762C5.12874 20.9516 5.51125 20.7693 5.9101 20.7693C6.30895 20.7693 6.69146 20.9516 6.97348 21.2762C7.25551 21.6008 7.41395 22.041 7.41395 22.5V39.8077C7.41395 40.2667 7.57239 40.707 7.85442 41.0316C8.13645 41.3561 8.51896 41.5385 8.9178 41.5385H14.9332V29.4231C14.9332 28.9641 15.0916 28.5238 15.3737 28.1993C15.6557 27.8747 16.0382 27.6923 16.4371 27.6923H28.4679C28.8667 27.6923 29.2492 27.8747 29.5312 28.1993C29.8133 28.5238 29.9717 28.9641 29.9717 29.4231V41.5385H35.9871C36.386 41.5385 36.7685 41.3561 37.0505 41.0316C37.3325 40.707 37.491 40.2667 37.491 39.8077V22.5C37.491 22.041 37.6494 21.6008 37.9314 21.2762C38.2135 20.9516 38.596 20.7693 38.9948 20.7693C39.3937 20.7693 39.7762 20.9516 40.0582 21.2762C40.3402 21.6008 40.4987 22.041 40.4987 22.5V39.8077C40.4987 41.1848 40.0233 42.5055 39.1773 43.4792C38.3312 44.453 37.1836 45 35.9871 45Z" fill="black"/>
</svg>
