<svg width="50" height="32" viewBox="0 0 50 32" fill="none" xmlns="http://www.w3.org/2000/svg">
<g clip-path="url(#clip0_515_462)">
<rect y="-1.52588e-05" width="50" height="32" rx="3" fill="white"/>
<path d="M29.3742 23.8632H20.625V8.13934H29.3742V23.8632Z" fill="#6C6BBD"/>
<path d="M21.1855 16C21.1855 12.8103 22.6789 9.96909 25.0046 8.13808C23.3039 6.79915 21.1575 5.99999 18.8249 5.99999C13.3026 5.99999 8.82617 10.4771 8.82617 16C8.82617 21.5229 13.3026 26 18.8249 26C21.1575 26 23.3039 25.2008 25.0046 23.8619C22.6789 22.0309 21.1855 19.1896 21.1855 16Z" fill="#EB001B"/>
<path d="M41.1741 16C41.1741 21.5229 36.6977 26 31.1754 26C28.8428 26 26.6964 25.2008 24.9951 23.8619C27.3214 22.0309 28.8148 19.1896 28.8148 16C28.8148 12.8103 27.3214 9.96909 24.9951 8.13808C26.6964 6.79915 28.8428 5.99999 31.1754 5.99999C36.6977 5.99999 41.1741 10.4771 41.1741 16Z" fill="#0099DF"/>
<path d="M34.0156 14.2904C34.1587 14.2904 34.3645 14.3178 34.5218 14.3796L34.3027 15.0493C34.1525 14.9875 34.0023 14.9671 33.8583 14.9671C33.3936 14.9671 33.1612 15.2676 33.1612 15.8074V17.6397H32.45V14.3725H33.1542V14.7692C33.3388 14.482 33.6056 14.2904 34.0156 14.2904V14.2904ZM31.3884 15.0219H30.2265V16.4982C30.2265 16.826 30.3423 17.0451 30.6983 17.0451C30.8829 17.0451 31.1153 16.9833 31.3265 16.8605L31.5315 17.4684C31.3062 17.6256 30.951 17.7219 30.6435 17.7219C29.8025 17.7219 29.5091 17.2704 29.5091 16.5115V15.0219H28.8456V14.3725H29.5091V13.3813H30.2265V14.3725H31.3884V15.0219ZM22.2901 15.719C22.366 15.2472 22.6524 14.9257 23.1586 14.9257C23.6163 14.9257 23.9104 15.2128 23.9855 15.719H22.2901ZM24.7241 16.0061C24.7171 14.9875 24.088 14.2904 23.1719 14.2904C22.215 14.2904 21.5453 14.9875 21.5453 16.0061C21.5453 17.0443 22.2424 17.7211 23.2204 17.7211C23.7125 17.7211 24.1631 17.5982 24.5598 17.2634L24.2109 16.7368C23.9378 16.9559 23.5889 17.0787 23.2611 17.0787C22.8034 17.0787 22.3864 16.8667 22.2839 16.2792H24.71C24.7171 16.19 24.7241 16.1016 24.7241 16.0061V16.0061ZM27.8473 15.2065C27.6494 15.0829 27.2465 14.9257 26.8295 14.9257C26.4398 14.9257 26.2075 15.0696 26.2075 15.309C26.2075 15.5273 26.4531 15.5891 26.7606 15.6298L27.0955 15.6775C27.8067 15.7808 28.237 16.0812 28.237 16.6555C28.237 17.2775 27.6901 17.7219 26.7473 17.7219C26.2137 17.7219 25.7216 17.5849 25.332 17.2978L25.6669 16.7439C25.9063 16.9285 26.2622 17.0858 26.7544 17.0858C27.2394 17.0858 27.4992 16.9426 27.4992 16.6891C27.4992 16.5053 27.3145 16.402 26.9249 16.348L26.5901 16.3003C25.8585 16.197 25.4619 15.8692 25.4619 15.3364C25.4619 14.687 25.9955 14.2904 26.8224 14.2904C27.3419 14.2904 27.8137 14.4069 28.1548 14.6323L27.8473 15.2065ZM36.6138 14.9656C36.4675 14.9656 36.3322 14.9914 36.2062 15.0422C36.081 15.0939 35.9723 15.1658 35.8807 15.2582C35.7892 15.3505 35.7172 15.4616 35.6648 15.5907C35.6124 15.7198 35.5866 15.8622 35.5866 16.0171C35.5866 16.1728 35.6124 16.3144 35.6648 16.4435C35.7172 16.5725 35.7892 16.6836 35.8807 16.776C35.9723 16.8683 36.081 16.9403 36.2062 16.9919C36.3322 17.0435 36.4675 17.0686 36.6138 17.0686C36.7601 17.0686 36.8963 17.0435 37.0214 16.9919C37.1474 16.9403 37.2569 16.8683 37.3485 16.776C37.4416 16.6836 37.5135 16.5725 37.5667 16.4435C37.6192 16.3144 37.645 16.1728 37.645 16.0171C37.645 15.8622 37.6192 15.7198 37.5667 15.5907C37.5135 15.4616 37.4416 15.3505 37.3485 15.2582C37.2569 15.1658 37.1474 15.0939 37.0214 15.0422C36.8963 14.9914 36.7601 14.9656 36.6138 14.9656V14.9656ZM36.6138 14.2904C36.8673 14.2904 37.102 14.3342 37.3179 14.4226C37.5339 14.5102 37.7209 14.6315 37.8781 14.7856C38.0362 14.9397 38.159 15.122 38.2482 15.3317C38.3374 15.5422 38.382 15.7706 38.382 16.0171C38.382 16.2635 38.3374 16.492 38.2482 16.7024C38.159 16.9121 38.0362 17.0952 37.8781 17.2493C37.7209 17.4034 37.5339 17.5239 37.3179 17.6123C37.102 17.6999 36.8673 17.7438 36.6138 17.7438C36.3603 17.7438 36.1256 17.6999 35.9097 17.6123C35.6937 17.5239 35.5083 17.4034 35.3518 17.2493C35.1954 17.0952 35.0725 16.9121 34.9834 16.7024C34.8942 16.492 34.8496 16.2635 34.8496 16.0171C34.8496 15.7706 34.8942 15.5422 34.9834 15.3317C35.0725 15.122 35.1954 14.9397 35.3518 14.7856C35.5083 14.6315 35.6937 14.5102 35.9097 14.4226C36.1256 14.3342 36.3603 14.2904 36.6138 14.2904V14.2904ZM18.1373 16.0061C18.1373 15.4318 18.5136 14.9601 19.1286 14.9601C19.7161 14.9601 20.1128 15.4115 20.1128 16.0061C20.1128 16.6007 19.7161 17.0514 19.1286 17.0514C18.5136 17.0514 18.1373 16.5804 18.1373 16.0061V16.0061ZM20.7825 16.0061V14.3725H20.0721V14.7692C19.846 14.475 19.5049 14.2904 19.0402 14.2904C18.124 14.2904 17.4066 15.0078 17.4066 16.0061C17.4066 17.0036 18.124 17.7219 19.0402 17.7219C19.5049 17.7219 19.846 17.5372 20.0721 17.243V17.6397H20.7825V16.0061ZM16.7775 17.6397V15.5891C16.7775 14.8169 16.2854 14.2974 15.4929 14.2904C15.0759 14.2833 14.6448 14.4132 14.3444 14.8717C14.119 14.5094 13.7631 14.2904 13.2639 14.2904C12.9158 14.2904 12.5739 14.3929 12.3071 14.7754V14.3725H11.5967V17.6397H12.3141V15.8285C12.3141 15.2613 12.6286 14.9601 13.1137 14.9601C13.5855 14.9601 13.8249 15.2676 13.8249 15.8215V17.6397H14.5423V15.8285C14.5423 15.2613 14.8709 14.9601 15.3419 14.9601C15.8277 14.9601 16.0601 15.2676 16.0601 15.8215V17.6397H16.7775Z" fill="white"/>
</g>
<defs>
<clipPath id="clip0_515_462">
<rect width="50" height="32" fill="white"/>
</clipPath>
</defs>
</svg>
