<svg width="50" height="32" viewBox="0 0 50 32" fill="none" xmlns="http://www.w3.org/2000/svg">
<rect width="50" height="32" rx="3" fill="white"/>
<path d="M29.3635 23.8645H20.6143V8.14068H29.3635V23.8645Z" fill="#FF5F00"/>
<path d="M21.1748 16.0013C21.1748 12.8117 22.6682 9.97043 24.9938 8.13942C23.2931 6.80049 21.1468 6.00133 18.8142 6.00133C13.2919 6.00133 8.81543 10.4784 8.81543 16.0013C8.81543 21.5243 13.2919 26.0013 18.8142 26.0013C21.1468 26.0013 23.2931 25.2022 24.9938 23.8632C22.6682 22.0322 21.1748 19.191 21.1748 16.0013Z" fill="#EB001B"/>
<path d="M41.1634 16.0013C41.1634 21.5243 36.687 26.0013 31.1647 26.0013C28.832 26.0013 26.6857 25.2022 24.9844 23.8632C27.3107 22.0322 28.8041 19.191 28.8041 16.0013C28.8041 12.8117 27.3107 9.97043 24.9844 8.13942C26.6857 6.80049 28.832 6.00133 31.1647 6.00133C36.687 6.00133 41.1634 10.4784 41.1634 16.0013Z" fill="#F79E1B"/>
<path d="M16.3398 16.0646C16.3398 15.6278 16.6261 15.2689 17.0938 15.2689C17.5407 15.2689 17.8424 15.6123 17.8424 16.0646C17.8424 16.5169 17.5407 16.8602 17.0938 16.8602C16.6261 16.8602 16.3398 16.5014 16.3398 16.0646ZM18.3518 16.0646V14.822H17.8115V15.1237C17.6401 14.9 17.38 14.7595 17.0266 14.7595C16.3297 14.7595 15.7834 15.3058 15.7834 16.0646C15.7834 16.8239 16.3297 17.3696 17.0266 17.3696C17.38 17.3696 17.6401 17.2292 17.8115 17.0054V17.3071H18.3518V16.0646ZM36.6116 16.0646C36.6116 15.6278 36.8979 15.2689 37.3656 15.2689C37.8131 15.2689 38.1142 15.6123 38.1142 16.0646C38.1142 16.5169 37.8131 16.8602 37.3656 16.8602C36.8979 16.8602 36.6116 16.5014 36.6116 16.0646ZM38.6242 16.0646V13.8241H38.0833V15.1237C37.9119 14.9 37.6518 14.7595 37.2984 14.7595C36.6015 14.7595 36.0552 15.3058 36.0552 16.0646C36.0552 16.8239 36.6015 17.3696 37.2984 17.3696C37.6518 17.3696 37.9119 17.2292 38.0833 17.0054V17.3071H38.6242V16.0646ZM25.0591 15.2434C25.4072 15.2434 25.631 15.4618 25.6881 15.8462H24.3985C24.4563 15.4873 24.6741 15.2434 25.0591 15.2434ZM25.0698 14.7595C24.3414 14.7595 23.832 15.2898 23.832 16.0646C23.832 16.8549 24.3622 17.3696 25.1061 17.3696C25.4804 17.3696 25.8232 17.2762 26.1249 17.0215L25.8601 16.621C25.6518 16.787 25.3864 16.881 25.1371 16.881C24.7889 16.881 24.4717 16.7198 24.3938 16.2723H26.2392C26.2445 16.205 26.2499 16.1372 26.2499 16.0646C26.2445 15.2898 25.7661 14.7595 25.0698 14.7595ZM31.5944 16.0646C31.5944 15.6278 31.8806 15.2689 32.3484 15.2689C32.7953 15.2689 33.097 15.6123 33.097 16.0646C33.097 16.5169 32.7953 16.8602 32.3484 16.8602C31.8806 16.8602 31.5944 16.5014 31.5944 16.0646ZM33.6064 16.0646V14.822H33.0661V15.1237C32.8941 14.9 32.6346 14.7595 32.2811 14.7595C31.5843 14.7595 31.038 15.3058 31.038 16.0646C31.038 16.8239 31.5843 17.3696 32.2811 17.3696C32.6346 17.3696 32.8941 17.2292 33.0661 17.0054V17.3071H33.6064V16.0646ZM28.5428 16.0646C28.5428 16.8186 29.0676 17.3696 29.8686 17.3696C30.2429 17.3696 30.4923 17.2863 30.7625 17.0733L30.503 16.6365C30.3001 16.7823 30.087 16.8602 29.8526 16.8602C29.4211 16.8549 29.1039 16.543 29.1039 16.0646C29.1039 15.5861 29.4211 15.2743 29.8526 15.2689C30.087 15.2689 30.3001 15.3469 30.503 15.4927L30.7625 15.0559C30.4923 14.8429 30.2429 14.7595 29.8686 14.7595C29.0676 14.7595 28.5428 15.3106 28.5428 16.0646ZM35.5095 14.7595C35.1977 14.7595 34.9948 14.9053 34.8543 15.1237V14.822H34.3187V17.3071H34.8597V15.914C34.8597 15.5028 35.0364 15.2743 35.3899 15.2743C35.4994 15.2743 35.6136 15.2898 35.7279 15.3368L35.8945 14.8274C35.7749 14.7804 35.619 14.7595 35.5095 14.7595ZM21.0244 15.0196C20.7643 14.8482 20.4061 14.7595 20.0109 14.7595C19.3813 14.7595 18.9761 15.0613 18.9761 15.5552C18.9761 15.9604 19.2778 16.2104 19.8336 16.2883L20.0889 16.3246C20.3853 16.3663 20.5251 16.4442 20.5251 16.5847C20.5251 16.7769 20.3275 16.8864 19.9586 16.8864C19.5843 16.8864 19.3141 16.7668 19.132 16.6263L18.8773 17.0471C19.1736 17.2655 19.548 17.3696 19.9532 17.3696C20.6709 17.3696 21.0869 17.0316 21.0869 16.5585C21.0869 16.1217 20.7596 15.8932 20.2186 15.8152L19.9639 15.7783C19.7301 15.7474 19.5426 15.701 19.5426 15.5344C19.5426 15.3523 19.7193 15.2434 20.0157 15.2434C20.3329 15.2434 20.64 15.363 20.7905 15.4564L21.0244 15.0196ZM27.9965 14.7595C27.6846 14.7595 27.4817 14.9053 27.3419 15.1237V14.822H26.8063V17.3071H27.3466V15.914C27.3466 15.5028 27.5234 15.2743 27.8769 15.2743C27.9864 15.2743 28.1006 15.2898 28.2149 15.3368L28.3815 14.8274C28.2619 14.7804 28.106 14.7595 27.9965 14.7595ZM23.3851 14.822H22.5014V14.068H21.9551V14.822H21.4511V15.316H21.9551V16.4496C21.9551 17.0262 22.1789 17.3696 22.818 17.3696C23.0525 17.3696 23.3226 17.297 23.494 17.1774L23.3381 16.7144C23.1768 16.8079 23.0001 16.8549 22.8596 16.8549C22.5895 16.8549 22.5014 16.6882 22.5014 16.4389V15.316H23.3851V14.822ZM15.3056 17.3071V15.7474C15.3056 15.16 14.9312 14.7649 14.3278 14.7595C14.0106 14.7542 13.6833 14.853 13.4542 15.2017C13.2828 14.9262 13.0127 14.7595 12.633 14.7595C12.3676 14.7595 12.1081 14.8375 11.9052 15.1285V14.822H11.3643V17.3071H11.91V15.9295C11.91 15.4981 12.1492 15.2689 12.5187 15.2689C12.8776 15.2689 13.0591 15.5028 13.0591 15.9241V17.3071H13.6054V15.9295C13.6054 15.4981 13.8547 15.2689 14.2136 15.2689C14.5825 15.2689 14.7593 15.5028 14.7593 15.9241V17.3071H15.3056Z" fill="white"/>
</svg>
