<svg width="50" height="32" viewBox="0 0 50 32" fill="none" xmlns="http://www.w3.org/2000/svg">
<rect width="50" height="32" rx="3" fill="white"/>
<path d="M15.6395 5.02361C15.2544 5.10366 14.8769 5.3057 14.591 5.59542C14.366 5.81651 14.2326 6.02236 14.1029 6.35401L14 6.60561V16.0023V25.3989L14.1029 25.6505C14.3508 26.2681 14.7321 26.6493 15.3497 26.8971L15.6014 27H24.9809H34.3605L34.6464 26.8933C35.2146 26.6836 35.6645 26.2414 35.8932 25.662L36 25.3989V16.0023V6.60561L35.8971 6.35401C35.6492 5.73646 35.2679 5.35526 34.6503 5.10748L34.3986 5.00455L25.0953 5.00074C19.9785 4.99693 15.7234 5.00836 15.6395 5.02361ZM20.0662 7.12023C20.2302 7.16216 20.5123 7.2689 20.6915 7.35658L21.0156 7.52049L21.3664 7.34514C21.843 7.10498 22.2166 7.02874 22.8114 7.05161C23.1889 7.06686 23.3185 7.08973 23.6007 7.18504C24.3251 7.43663 24.8666 7.90551 25.1906 8.56118C25.4156 9.01863 25.4194 9.03006 25.4194 11.7976V14.325H24.3137H23.208V11.931C23.208 9.73148 23.2042 9.52944 23.1393 9.41126C23.0555 9.23972 22.9144 9.14061 22.7276 9.11393C22.5255 9.08724 22.3158 9.17873 22.2166 9.33884C22.1442 9.46082 22.1404 9.52563 22.1404 11.8929V14.325H21.0156H19.8908V11.9196C19.8908 9.23591 19.9023 9.33884 19.6277 9.18635C19.3685 9.03769 19.0367 9.11393 18.8957 9.34646C18.827 9.45701 18.8232 9.58281 18.8232 11.8929V14.325H17.6984H16.5737V11.8891C16.5737 9.1368 16.5775 9.07199 16.8367 8.54974C17.1951 7.83308 17.8281 7.32989 18.6326 7.12023C19.0291 7.02112 19.662 7.01731 20.0662 7.12023ZM30.7688 7.1736C31.4094 7.3642 31.9165 7.67298 32.3816 8.15329C33.4873 9.2969 33.7276 10.9704 32.9879 12.3694C32.3168 13.6388 31.0281 14.3783 29.5945 14.3135C28.6679 14.2716 27.9016 13.94 27.2191 13.2805C25.8426 11.9577 25.7473 9.76197 26.9941 8.30959C27.5165 7.70347 28.2485 7.2689 29.0416 7.10117C29.2094 7.06305 29.4724 7.05161 29.8614 7.05924C30.3456 7.07067 30.4867 7.08592 30.7688 7.1736ZM20.0929 15.5258C20.2378 15.5639 20.5009 15.6668 20.6839 15.7583L21.0156 15.926L21.3016 15.7736C21.7591 15.5372 22.1137 15.4533 22.6551 15.4533C23.4939 15.4495 24.1497 15.7164 24.714 16.292C24.9733 16.5588 25.1563 16.8409 25.3012 17.2145L25.4003 17.4699L25.4118 20.1078L25.4232 22.7496H24.3137H23.208V20.3442C23.208 18.1751 23.2003 17.9274 23.1432 17.8054C23.0555 17.6186 22.8915 17.5271 22.6437 17.5271C22.4683 17.5271 22.4263 17.5423 22.3005 17.6567L22.1594 17.7863L22.1404 20.2603L22.1213 22.7305H21.0156H19.9099L19.8908 20.2908C19.8756 18.3734 19.8603 17.8321 19.8222 17.7634C19.6468 17.4547 19.0672 17.4547 18.8919 17.7634C18.8537 17.8321 18.8385 18.3734 18.8232 20.2908L18.8042 22.7305H17.6984H16.5927V20.1574V17.5843L16.6957 17.2755C17.0159 16.3339 17.8319 15.6592 18.8919 15.4686C19.1549 15.419 19.7955 15.4495 20.0929 15.5258ZM30.643 15.5448C31.295 15.7087 32.0461 16.1586 32.4693 16.6351C33.1061 17.3555 33.4073 18.1637 33.3997 19.1281C33.392 20.1078 33.0412 20.9503 32.3511 21.6441C31.2454 22.7648 29.5601 23.0469 28.1456 22.3493C26.3688 21.4725 25.6215 19.3264 26.4679 17.5347C26.834 16.7609 27.3945 16.1929 28.157 15.8117C28.4849 15.6478 28.87 15.522 29.2132 15.4686C29.5754 15.4152 30.2731 15.4495 30.643 15.5448ZM20.539 23.7064V23.9732L20.6229 23.9161C20.6686 23.8818 20.7792 23.8551 20.8631 23.8551C21.149 23.8551 21.3016 24.0495 21.3016 24.4078C21.3016 24.8767 20.966 25.1321 20.6267 24.9224C20.5237 24.8614 20.5009 24.8576 20.5009 24.9034C20.5009 24.9415 20.4589 24.9606 20.3674 24.9606H20.234V24.1982V23.4357H20.3865H20.539V23.7064ZM22.0641 23.5882V23.7407H21.9116H21.7591V23.5882V23.4357H21.9116H22.0641V23.5882ZM22.9029 24.1982V24.9606H22.7504H22.5979V24.1982V23.4357H22.7504H22.9029V24.1982ZM16.8787 23.9161C16.8787 23.9694 16.8863 23.9694 16.9626 23.9161C17.0846 23.8284 17.3477 23.836 17.4315 23.9313C17.4964 24.0037 17.5002 24.0037 17.5955 23.9313C17.687 23.8551 17.912 23.8284 18.0416 23.8779C18.1674 23.9275 18.2132 24.1029 18.2132 24.5412V24.9606H18.0607H17.9081V24.5679C17.9081 24.1638 17.8815 24.0838 17.7518 24.0838C17.6031 24.0838 17.565 24.1867 17.565 24.5832V24.9606H17.4125H17.26V24.6213C17.26 24.1867 17.2218 24.0762 17.0808 24.0914C16.9282 24.1067 16.8787 24.2401 16.8787 24.6251V24.9606H16.7262H16.5737V24.4078V23.8551H16.7262C16.8406 23.8551 16.8787 23.8703 16.8787 23.9161ZM19.5362 23.9313C19.7002 24.0304 19.7917 24.2134 19.7879 24.4421C19.7802 24.8729 19.3341 25.1245 18.9376 24.9224C18.7546 24.8271 18.6669 24.6708 18.6631 24.4307C18.6631 24.0724 18.8728 23.8551 19.2236 23.8551C19.3456 23.8551 19.46 23.8818 19.5362 23.9313ZM22.0641 24.4078V24.9606H21.9116H21.7591V24.4078V23.8551H21.9116H22.0641V24.4078ZM24.1421 23.9389C24.2641 24.0342 24.3518 24.221 24.3518 24.3888V24.5031H23.9858C23.6274 24.5031 23.6236 24.5031 23.6464 24.587C23.7036 24.7738 23.879 24.8233 24.001 24.6899C24.062 24.6289 24.104 24.6175 24.2146 24.6365L24.348 24.6632L24.2908 24.7776C24.1841 24.9834 23.8409 25.0597 23.5931 24.9301C23.2614 24.7623 23.227 24.1791 23.5321 23.9389C23.6808 23.8208 23.9934 23.8208 24.1421 23.9389ZM26.1057 23.9161C26.1057 23.9694 26.1133 23.9694 26.1896 23.9161C26.3116 23.8322 26.5823 23.836 26.6738 23.9275C26.7425 23.9961 26.7463 23.9961 26.834 23.9275C26.9712 23.8208 27.2305 23.8322 27.3449 23.9504C27.4364 24.038 27.4402 24.0647 27.4402 24.5031V24.9606H27.2877H27.1352V24.5832C27.1352 24.141 27.1199 24.0838 26.9979 24.0838C26.8454 24.0838 26.792 24.2134 26.792 24.606V24.9606H26.6395H26.487V24.5679C26.487 24.1562 26.4603 24.0838 26.3154 24.0838C26.1705 24.0838 26.1438 24.1562 26.1438 24.5679V24.9606H25.9723H25.8007V24.4345C25.8007 24.1448 25.8121 23.8932 25.8274 23.8818C25.8388 23.8665 25.9075 23.8551 25.9799 23.8551C26.0676 23.8551 26.1057 23.8741 26.1057 23.9161ZM28.7633 23.9313C29.0263 24.0876 29.1064 24.4078 28.9577 24.6899C28.8052 24.9872 28.4582 25.0825 28.1608 24.9148C27.9854 24.8157 27.8977 24.648 27.8977 24.4078C27.8977 24.0609 28.1036 23.8551 28.4506 23.8551C28.5726 23.8551 28.687 23.8818 28.7633 23.9313ZM29.766 23.9161C29.766 23.9732 29.7737 23.9732 29.8614 23.9161C29.9529 23.8551 30.2007 23.836 30.3189 23.8779C30.4447 23.9275 30.4905 24.1029 30.4905 24.5412V24.9606H30.338H30.1854V24.5946C30.1854 24.3964 30.1664 24.1982 30.1473 24.1562C30.1054 24.08 29.9757 24.0609 29.888 24.1181C29.8156 24.16 29.7698 24.4002 29.766 24.7013V24.9606H29.6135H29.461V24.4078V23.8551H29.6135C29.7279 23.8551 29.766 23.8703 29.766 23.9161ZM31.7716 23.9809C31.8898 24.0876 31.9127 24.1372 31.9317 24.3049L31.9508 24.5031H31.5847C31.2492 24.5031 31.2187 24.5107 31.2416 24.5679C31.3102 24.77 31.4666 24.8233 31.5886 24.6899C31.6496 24.6289 31.6915 24.6175 31.8021 24.6365C31.9622 24.667 31.9584 24.667 31.8783 24.7928C31.6724 25.1016 31.1348 25.0559 30.9823 24.7166C30.8946 24.526 30.8908 24.3544 30.9671 24.1677C31.0586 23.9504 31.1958 23.8551 31.436 23.8551C31.6076 23.8551 31.6534 23.8703 31.7716 23.9809ZM32.7248 24.2363C32.862 24.6442 32.843 24.6518 33.0107 24.1295L33.0984 23.8551H33.2433C33.3386 23.8551 33.3882 23.8741 33.3882 23.9046C33.3882 23.9694 32.9459 25.1664 32.8849 25.2655C32.8201 25.3646 32.6638 25.4256 32.5075 25.4104C32.3931 25.3989 32.3778 25.3837 32.3664 25.2731C32.3549 25.1588 32.3626 25.1474 32.4312 25.1702C32.4884 25.1855 32.538 25.1664 32.6066 25.0978L32.7019 25.0025L32.6104 24.7623C32.5608 24.6289 32.4655 24.3849 32.4007 24.2172C32.3359 24.0495 32.2825 23.9008 32.2825 23.8818C32.2825 23.8665 32.3549 23.8551 32.4426 23.8627L32.599 23.8741L32.7248 24.2363Z" fill="#AF2070"/>
<path d="M29.3465 9.15967C28.9042 9.28547 28.542 9.59043 28.3437 10.0098C28.2293 10.2499 28.2217 10.2918 28.2217 10.6845C28.2217 11.0809 28.2293 11.1191 28.3437 11.3554C28.4924 11.6604 28.805 11.9653 29.0948 12.0987C29.9756 12.5028 30.9936 12.0454 31.2681 11.1267C31.3444 10.8637 31.3482 10.471 31.2719 10.2194C31.1423 9.78866 30.7534 9.37314 30.3302 9.20923C30.0633 9.1063 29.6172 9.08724 29.3465 9.15967Z" fill="#AF2070"/>
<path d="M29.5219 17.5347C29.03 17.5995 28.5686 17.9388 28.3437 18.4C28.2293 18.6364 28.2217 18.6745 28.2217 19.071C28.2217 19.4827 28.2255 19.5017 28.3666 19.7838C28.5343 20.1307 28.7555 20.3404 29.1177 20.5157C29.3465 20.6263 29.396 20.6339 29.7659 20.6339C30.1357 20.6339 30.1853 20.6263 30.4217 20.5119C30.7572 20.3556 31.0317 20.0812 31.1881 19.7457C31.3024 19.5093 31.3101 19.4598 31.3101 19.09C31.3101 18.7203 31.3024 18.6707 31.1919 18.442C30.8754 17.7749 30.2501 17.4318 29.5219 17.5347Z" fill="#AF2070"/>
<path d="M20.5997 24.1677C20.5044 24.3049 20.5196 24.5641 20.634 24.6747C20.7484 24.7928 20.7865 24.7928 20.9009 24.6747C21.0915 24.4879 20.9962 24.0838 20.7675 24.0838C20.6988 24.0838 20.6378 24.1143 20.5997 24.1677Z" fill="#AF2070"/>
<path d="M19.0747 24.1638C18.9947 24.2248 18.9756 24.2744 18.9756 24.404C18.9756 24.6213 19.0595 24.7318 19.2234 24.7318C19.3874 24.7318 19.4713 24.6213 19.4713 24.404C19.4713 24.2744 19.4522 24.2248 19.3721 24.1638C19.3149 24.1181 19.2501 24.0838 19.2234 24.0838C19.1967 24.0838 19.1319 24.1181 19.0747 24.1638Z" fill="#AF2070"/>
<path d="M23.7155 24.1295C23.6011 24.2782 23.624 24.3125 23.8375 24.3125C23.9938 24.3125 24.0472 24.2973 24.0472 24.2591C24.0472 24.1181 23.7994 24.0228 23.7155 24.1295Z" fill="#AF2070"/>
<path d="M28.2984 24.1791C28.1078 24.3659 28.2069 24.7318 28.4471 24.7318C28.6187 24.7318 28.6988 24.6327 28.6988 24.4154C28.6988 24.1105 28.4891 23.9885 28.2984 24.1791Z" fill="#AF2070"/>
<path d="M31.2987 24.1295C31.272 24.1562 31.2529 24.2058 31.2529 24.2439C31.2529 24.3011 31.2872 24.3125 31.4436 24.3125C31.5999 24.3125 31.6342 24.3011 31.6342 24.2439C31.6342 24.2058 31.6151 24.1562 31.5885 24.1295C31.5313 24.0724 31.3559 24.0724 31.2987 24.1295Z" fill="#AF2070"/>
</svg>
