<svg width="45" height="45" viewBox="0 0 45 45" fill="none" xmlns="http://www.w3.org/2000/svg">
<g clip-path="url(#clip0_97_2362)">
<path d="M44.7976 35.8671L44.5736 35.1922C44.0431 33.6155 42.3043 31.971 40.7069 31.5378L34.7949 29.9227C33.1916 29.4866 30.9046 30.0731 29.7316 31.246L27.592 33.3857C19.8159 31.2845 13.7183 25.1866 11.6199 17.4121L13.7597 15.2723C14.9327 14.0993 15.5191 11.8154 15.0829 10.2121L13.4708 4.29716C13.0346 2.69683 11.3872 0.958064 9.81343 0.433424L9.13855 0.206517C7.56181 -0.318123 5.31311 0.212458 4.14019 1.38538L0.939537 4.58895C0.367743 5.15773 0.00229661 6.78455 0.00229661 6.7905C-0.109648 16.9523 3.8749 26.7427 11.0629 33.9308C18.2333 41.1012 27.987 45.0799 38.1193 44.9944C38.1723 44.9944 39.8462 44.6348 40.418 44.066L43.6187 40.8653C44.7916 39.6925 45.3221 37.4439 44.7976 35.8671Z" fill="black"/>
</g>
<defs>
<clipPath id="clip0_97_2362">
<rect width="45" height="45" fill="white"/>
</clipPath>
</defs>
</svg>
