<svg width="50" height="32" viewBox="0 0 50 32" fill="none" xmlns="http://www.w3.org/2000/svg">
<rect width="50" height="32" rx="3" fill="white"/>
<path d="M12.149 8.71161C7.15048 9.34841 6.30049 9.49537 6.14825 9.69131C6.0087 9.875 5.98333 10.9159 6.0087 15.4103L6.04676 20.9089L6.46542 21.264L6.87138 21.6192H13.7601C20.078 21.6192 20.6616 21.5947 20.9026 21.3987C21.0548 21.2885 21.2451 21.0681 21.3213 20.9211C21.5116 20.5537 21.5116 11.5895 21.3213 11.1731C21.0168 10.5241 21.1437 10.5363 13.9377 10.4751C6.84601 10.4138 6.93481 10.4138 7.03631 9.86275C7.06168 9.70355 7.82287 9.67906 12.8721 9.64232L18.6698 9.61783V9.03001C18.6698 8.42994 18.5049 8.09929 18.1623 8.00132C18.0608 7.97683 15.3459 8.29523 12.149 8.71161ZM14.775 12.4835C15.4982 12.7406 16.1579 13.2672 16.1071 13.5611C16.031 14.0387 15.6758 14.1244 15.0922 13.7938C14.0392 13.206 13.278 13.255 12.7833 13.9163C12.2758 14.6265 12.6437 15.0429 14.128 15.4593C15.3079 15.7777 15.6758 15.9981 16.1071 16.6104C16.5131 17.186 16.4497 18.08 15.9295 18.8882C15.4347 19.6475 14.8765 19.9659 13.9758 19.9537C13.1512 19.9537 12.5549 19.7087 11.7557 19.023C11.1213 18.4841 11.0072 18.0433 11.4385 17.8228C11.6542 17.7126 11.8064 17.7738 12.4154 18.2637C13.278 18.9372 13.646 19.0842 14.1788 18.9985C14.8765 18.8637 15.4601 17.9943 15.2952 17.2962C15.2444 17.0391 15.0795 16.8799 14.6862 16.7084C14.4071 16.5859 14.0519 16.4757 13.8997 16.4757C13.7601 16.4757 13.2907 16.3043 12.8594 16.0961C11.54 15.4715 11.2102 14.4918 11.9333 13.4019C12.5422 12.459 13.646 12.1038 14.775 12.4835Z" fill="#ED4C2F"/>
<path d="M24.8096 8.31972C24.5305 8.42994 24.3529 8.62588 24.2641 8.91979C24.0357 9.59333 24.2514 9.94848 25.1014 10.3036C26.2939 10.818 26.37 10.8547 26.535 11.1609C26.8394 11.6997 26.2685 12.4345 25.5454 12.4345C25.4312 12.4345 25.0253 12.2998 24.6447 12.1283C23.9723 11.8222 23.7693 11.7977 23.9342 12.0548C24.1118 12.3487 25.0253 12.6794 25.6215 12.6794C26.129 12.6794 26.2939 12.6182 26.573 12.3365C27.0678 11.8344 27.0551 11.0996 26.535 10.6833C26.332 10.5118 25.9514 10.3036 25.685 10.2179C24.5812 9.875 24.2133 9.28718 24.7589 8.76059C25.038 8.49117 25.7484 8.42994 26.1671 8.65037C26.3193 8.72385 26.5223 8.74834 26.6365 8.69936C26.8141 8.63813 26.8014 8.58914 26.5223 8.45443C26.0021 8.18502 25.2536 8.12378 24.8096 8.31972Z" fill="#ED4C2F"/>
<path d="M27.7529 8.234C27.7148 8.27074 27.6768 9.29942 27.6768 10.4996C27.6768 12.361 27.7021 12.6794 27.8671 12.6794C28.0193 12.6794 28.0574 12.4957 28.0574 11.7732V10.8669L28.5141 10.5975C29.0596 10.2669 29.567 10.2424 29.7954 10.5485C29.8969 10.6833 29.9603 11.1241 29.9603 11.7242C29.9603 12.4957 29.9984 12.6794 30.1506 12.6794C30.3029 12.6794 30.3409 12.5079 30.3409 11.8344C30.3409 10.5118 30.0364 9.99746 29.2626 9.99746C29.0596 9.99746 28.7424 10.0709 28.5648 10.1689C28.3872 10.2669 28.2096 10.3404 28.1588 10.3526C28.0954 10.3526 28.0574 9.88724 28.0574 9.32392C28.0574 8.36871 27.9685 8.03806 27.7529 8.234Z" fill="#ED4C2F"/>
<path d="M31.6477 10.2301C31.1149 10.5363 30.8612 11.2711 31.1022 11.8222C31.3433 12.3732 31.8127 12.6794 32.4343 12.6794C33.094 12.6794 33.5634 12.3487 33.7664 11.7609C34.185 10.5363 32.8149 9.54435 31.6477 10.2301ZM33.3223 10.7567C33.4238 10.9037 33.5126 11.1731 33.5126 11.369C33.5126 11.8222 32.891 12.4345 32.4343 12.4345C31.9903 12.4345 31.3559 11.8222 31.3559 11.3935C31.3559 10.3648 32.7261 9.92398 33.3223 10.7567Z" fill="#ED4C2F"/>
<path d="M34.5273 12.1283C34.5273 13.953 34.5527 14.2714 34.7176 14.2714C34.8699 14.2714 34.9079 14.0755 34.9079 13.2795V12.2998L35.187 12.4834C35.3393 12.5937 35.7072 12.6794 35.999 12.6794C37.0266 12.6794 37.699 11.7242 37.3057 10.8302C37.0012 10.1199 35.9102 9.75253 35.3393 10.1689C35.0221 10.4016 34.9079 10.4016 34.9079 10.1689C34.9079 10.0709 34.8191 9.98521 34.7176 9.98521C34.5527 9.98521 34.5273 10.3036 34.5273 12.1283ZM36.8109 10.6955C37.2042 11.1609 37.1408 11.7364 36.6714 12.1161C36.1639 12.5324 35.7326 12.5202 35.2758 12.0793C34.6923 11.5037 34.8191 10.72 35.5676 10.4261C36.0624 10.2179 36.5064 10.3159 36.8109 10.6955Z" fill="#ED4C2F"/>
<path d="M38.9048 10.1322C38.4227 10.3771 38.207 10.7567 38.207 11.369C38.207 11.8589 38.2705 12.0181 38.5749 12.3242C38.8921 12.6182 39.057 12.6794 39.5645 12.6794C39.907 12.6794 40.2876 12.6059 40.4272 12.5202C40.757 12.2753 40.4906 12.1773 39.9451 12.3365C39.3361 12.5202 38.7779 12.2998 38.6003 11.8099L38.4734 11.4548H39.5518C40.757 11.4548 40.8966 11.3568 40.6175 10.7077C40.351 10.1077 39.5011 9.81377 38.9048 10.1322ZM40.1354 10.5608C40.5921 10.9527 40.4272 11.0874 39.4757 11.0874C38.5369 11.0874 38.41 10.9894 38.8033 10.573C39.057 10.2914 39.8182 10.2791 40.1354 10.5608Z" fill="#ED4C2F"/>
<path d="M41.861 10.3404C41.4804 10.671 41.4424 10.769 41.4424 11.3935C41.4424 12.0058 41.4804 12.1283 41.7976 12.3855C42.0513 12.5937 42.3051 12.6794 42.6857 12.6794C43.4215 12.6794 43.7894 12.5569 43.7894 12.3487C43.7894 12.2263 43.7133 12.1895 43.5737 12.2508C43.4468 12.2998 43.1297 12.361 42.876 12.3977C42.4954 12.4467 42.3558 12.41 42.0894 12.1528C41.4931 11.5772 41.62 11.4548 42.8252 11.4548C43.4215 11.4548 43.9289 11.4058 43.9797 11.3323C44.0939 11.1486 43.7133 10.4016 43.3961 10.1812C42.9267 9.875 42.3304 9.93623 41.861 10.3404ZM43.3707 10.622C43.5356 10.769 43.6625 10.9282 43.6625 10.9894C43.6625 11.0384 43.2312 11.0874 42.711 11.0874C42.1909 11.0874 41.7595 11.0384 41.7595 10.9894C41.7595 10.9282 41.8737 10.769 42.0133 10.622C42.3558 10.2669 42.9774 10.2669 43.3707 10.622Z" fill="#ED4C2F"/>
<path d="M23.998 17.6881V21.6192H24.5689H25.1398V20.4558V19.2924H26.4719C28.0323 19.2924 28.9204 19.0352 29.542 18.4106C30.1129 17.8106 30.2525 17.4799 30.2652 16.6594C30.2652 15.447 29.6435 14.6021 28.3622 14.0755C28.007 13.9285 27.3473 13.855 25.9391 13.806L23.998 13.7448V17.6881ZM27.8674 15.1164C28.6794 15.4715 28.8823 15.7777 28.8823 16.6227C28.8823 17.284 28.8443 17.382 28.4764 17.7004C28.045 18.08 27.0809 18.2514 25.8376 18.1657L25.2033 18.129L25.1652 16.6717C25.1525 15.8634 25.1652 15.1286 25.1906 15.0429C25.2921 14.7857 27.2458 14.8347 27.8674 15.1164Z" fill="#ED4C2F"/>
<path d="M32.1805 16.341C31.5588 16.6104 30.9245 17.284 30.7215 17.884C30.6327 18.129 30.5946 18.6801 30.62 19.1087C30.6835 20.0516 31.1275 20.7374 31.9775 21.2273C32.7513 21.6681 33.9439 21.6926 34.7558 21.2885L35.2886 21.0068V21.313C35.2886 21.5947 35.3394 21.6192 35.8595 21.6192H36.4304V18.8637V16.1083H35.8595C35.3774 16.1083 35.2886 16.1451 35.2886 16.3533C35.2886 16.488 35.276 16.5982 35.2506 16.5982C35.2252 16.5982 34.9715 16.488 34.6797 16.3533C34.0073 16.0349 32.8782 16.0349 32.1805 16.341ZM34.4006 17.3207C35.2379 17.8963 35.5043 18.827 35.0603 19.6598C34.4513 20.8354 32.8782 20.9701 31.9521 19.9169C31.47 19.3658 31.4066 18.7658 31.7618 18.0922C32.2819 17.0636 33.5125 16.7084 34.4006 17.3207Z" fill="#ED4C2F"/>
<path d="M38.3976 18.3984C39.0826 19.6598 39.6916 20.7742 39.755 20.8476C39.8438 20.9579 39.6282 21.46 39.0446 22.4764C38.5879 23.2969 38.2073 23.9704 38.2073 23.9827C38.2073 23.9949 38.5118 24.0072 38.8797 23.9949L39.5394 23.9827L40.9729 21.4232C41.7595 20.0149 42.749 18.2392 43.1677 17.4799L43.9289 16.1083H43.2311H42.5207L41.6326 17.8228C41.1379 18.7658 40.7065 19.5373 40.6431 19.5373C40.5923 19.5373 40.1483 18.778 39.6535 17.8473L38.7655 16.1696L37.9662 16.1328L37.167 16.0961L38.3976 18.3984Z" fill="#ED4C2F"/>
</svg>
