<svg width="45" height="45" viewBox="0 0 45 45" fill="none" xmlns="http://www.w3.org/2000/svg">
<path d="M22.5 45C10.0733 45 0 34.9268 0 22.5C0 10.0733 10.0733 0 22.5 0C34.9268 0 45 10.0733 45 22.5C45 34.9268 34.9268 45 22.5 45ZM11.2793 36.576C14.4642 39.1223 18.4223 40.5065 22.5 40.5C26.9325 40.5 30.9892 38.898 34.1257 36.243C32.6604 34.7394 30.9084 33.545 28.9733 32.7303C27.0383 31.9156 24.9595 31.4973 22.86 31.5C20.6833 31.4975 18.5299 31.9474 16.5363 32.8212C14.5427 33.695 12.7525 34.9737 11.2793 36.576ZM8.136 33.345C10.027 31.3382 12.309 29.7399 14.8413 28.6486C17.3736 27.5574 20.1026 26.9963 22.86 27C25.5187 26.9965 28.1519 27.5183 30.6084 28.5354C33.0649 29.5524 35.2963 31.0447 37.1745 32.9265C39.1007 30.2155 40.2382 27.0239 40.4608 23.7058C40.6834 20.3877 39.9824 17.0727 38.4356 14.1288C36.8888 11.1848 34.5567 8.7269 31.6979 7.02775C28.8392 5.3286 25.5656 4.45464 22.2404 4.50282C18.9151 4.551 15.6682 5.51944 12.8599 7.3007C10.0516 9.08197 7.79166 11.6064 6.33081 14.594C4.86995 17.5815 4.26531 20.9154 4.58396 24.2256C4.90261 27.5359 6.13209 30.6932 8.136 33.3473V33.345ZM22.5 24.75C20.1131 24.75 17.8239 23.8018 16.136 22.114C14.4482 20.4261 13.5 18.137 13.5 15.75C13.5 13.3631 14.4482 11.0739 16.136 9.38604C17.8239 7.69821 20.1131 6.75 22.5 6.75C24.8869 6.75 27.1761 7.69821 28.864 9.38604C30.5518 11.0739 31.5 13.3631 31.5 15.75C31.5 18.137 30.5518 20.4261 28.864 22.114C27.1761 23.8018 24.8869 24.75 22.5 24.75ZM22.5 20.25C23.6935 20.25 24.8381 19.7759 25.682 18.932C26.5259 18.0881 27 16.9435 27 15.75C27 14.5565 26.5259 13.4119 25.682 12.568C24.8381 11.7241 23.6935 11.25 22.5 11.25C21.3065 11.25 20.1619 11.7241 19.318 12.568C18.4741 13.4119 18 14.5565 18 15.75C18 16.9435 18.4741 18.0881 19.318 18.932C20.1619 19.7759 21.3065 20.25 22.5 20.25Z"/>
</svg>
