<svg width="50" height="32" viewBox="0 0 50 32" fill="none" xmlns="http://www.w3.org/2000/svg">
<rect width="50" height="32" rx="3" fill="white"/>
<g clip-path="url(#clip0_515_585)">
<path fill-rule="evenodd" clip-rule="evenodd" d="M15.7717 5.07547C14.9555 5.24426 14.3226 5.84244 14.1059 6.65001L14.0557 6.83701V15.978V25.119L14.1047 25.303C14.3237 26.1241 14.904 26.6812 15.7607 26.8931C15.8961 26.9266 19.5252 26.9387 19.5582 26.9058C19.5734 26.8906 19.5627 26.8114 19.5009 26.483C19.4776 26.3594 19.4174 26.0618 19.3918 25.944C19.372 25.8526 19.2759 25.3679 19.237 25.163C19.2279 25.1146 19.2051 25.0008 19.1864 24.91C19.1678 24.8193 19.1479 24.7203 19.1423 24.69C19.1367 24.6598 19.1169 24.5608 19.0983 24.47C19.0797 24.3793 19.0599 24.2803 19.0543 24.25C19.0486 24.2198 19.0181 24.0663 18.9866 23.909C18.955 23.7517 18.9183 23.5686 18.9051 23.502C18.8919 23.4355 18.8728 23.3414 18.8627 23.293C18.8525 23.2446 18.8327 23.1456 18.8187 23.073C18.8046 23.0004 18.7841 22.9014 18.7731 22.853C18.762 22.8046 18.5543 21.7651 18.3116 20.543C18.0687 19.3209 17.8408 18.1775 17.8049 18.002C17.7419 17.6938 17.4163 16.0679 17.3952 15.956C17.3895 15.9258 17.3696 15.8268 17.351 15.736C17.3325 15.6453 17.3125 15.5463 17.3067 15.516C17.3009 15.4858 17.2416 15.1888 17.1748 14.856C17.108 14.5233 17.0489 14.2263 17.0435 14.196C17.038 14.1658 17.0143 14.047 16.9907 13.932C16.9397 13.6837 16.9323 13.6468 16.8047 13.008C16.7502 12.7358 16.6453 12.2111 16.5714 11.842C16.2938 10.4558 16.4471 9.77494 17.1744 9.16417C17.6596 8.75662 17.7235 8.73566 19.5337 8.38856C19.5821 8.37926 19.6959 8.35644 19.7867 8.33779C19.8774 8.31915 19.9764 8.29918 20.0067 8.29346C20.0369 8.2878 20.3636 8.22141 20.7327 8.14601C21.1017 8.0706 21.4284 8.00394 21.4587 7.99784C21.5212 7.98524 23.1344 7.66245 23.2187 7.64567C23.5185 7.58594 26.2796 7.0377 26.4637 7.00135C26.5968 6.975 26.7502 6.94404 26.8047 6.93249C26.8591 6.92088 26.9482 6.90334 27.0027 6.89344C27.0571 6.88354 27.2254 6.85037 27.3767 6.81979C27.5279 6.78921 27.6814 6.75836 27.7177 6.75121C27.754 6.74406 27.8876 6.71733 28.0147 6.69181C28.1417 6.66629 28.2853 6.63785 28.3337 6.62856C28.4846 6.59963 28.7692 6.54166 28.8727 6.51878C28.9271 6.50679 29.2291 6.44673 29.5437 6.3854C29.8583 6.32408 30.1503 6.2649 30.1927 6.25395C30.235 6.24295 30.631 6.16337 31.0727 6.07713C31.5143 5.99089 31.9054 5.9124 31.9417 5.90283C31.978 5.89321 32.6288 5.76286 33.3879 5.61315C34.2596 5.44127 34.7683 5.33166 34.7684 5.31554C34.7687 5.28584 34.4951 5.16726 34.2737 5.10104L34.1197 5.05501L25.0117 5.0516C17.8359 5.0489 15.8757 5.05396 15.7717 5.07547ZM28.8947 9.66687C28.7852 9.71483 28.664 9.85585 28.6297 9.9752C28.5839 10.1352 28.6032 14.6638 28.6502 14.7717C28.8511 15.2324 29.5385 15.1581 29.6406 14.6646C29.6604 14.5689 29.6653 13.9669 29.6603 12.2581L29.6537 9.97916L29.5698 9.85299C29.425 9.63486 29.1445 9.55753 28.8947 9.66687ZM21.1045 9.97179C20.5705 10.0648 20.4525 10.6663 20.9197 10.9145L21.0297 10.973L22.0362 10.9796C22.8641 10.9849 23.0427 10.9914 23.0427 11.0159C23.0427 11.0428 22.5095 11.7469 21.9199 12.4985C21.7933 12.6599 21.5903 12.9223 21.4689 13.0815C21.2361 13.3868 20.8855 13.8462 20.7441 14.031C20.4591 14.4037 20.4945 14.8292 20.8262 15.0172C21.0277 15.1313 21.0219 15.131 22.7347 15.131H24.3297L24.4546 15.0724C24.8501 14.8869 24.8163 14.2656 24.4026 14.1179C24.2949 14.0794 24.2001 14.0755 23.2022 14.0689C22.6062 14.0649 22.1187 14.0542 22.1187 14.0449C22.1187 14.0356 22.1756 13.9536 22.2452 13.8627C22.3679 13.7023 22.8536 13.0699 23.1635 12.667C23.3649 12.4052 23.872 11.7519 23.9064 11.7098C24.7181 10.7193 24.8139 10.1991 24.2216 9.99995C24.0989 9.9587 21.3236 9.93362 21.1045 9.97179ZM26.0017 11.4563C24.5037 11.783 24.1786 14.0567 25.5071 14.9151C26.0124 15.2416 26.7007 15.2192 27.126 14.8623C27.2633 14.7471 27.2499 14.7467 27.3342 14.8692C27.5448 15.1753 28.0397 15.1378 28.2302 14.8012C28.2869 14.7011 28.2995 12.0052 28.2441 11.8292C28.1253 11.4515 27.5698 11.3721 27.3349 11.6992C27.2486 11.8194 27.2349 11.82 27.1237 11.7079C26.8927 11.4749 26.4111 11.367 26.0017 11.4563ZM31.4027 11.4563C30.3303 11.6372 29.6801 12.8876 30.0869 13.987C30.6744 15.5748 32.9881 15.5224 33.4867 13.91C33.9297 12.4772 32.8547 11.2114 31.4027 11.4563ZM26.7656 12.444C27.4647 12.757 27.3411 14.0527 26.6006 14.1732C25.645 14.3287 25.3546 12.7459 26.2767 12.4076C26.3724 12.3724 26.6523 12.3933 26.7656 12.444ZM32.0849 12.4515C32.7642 12.7719 32.6326 14.0431 31.9068 14.1709C31.3064 14.2766 30.8801 13.6756 31.0616 12.979C31.1866 12.499 31.664 12.2529 32.0849 12.4515Z" fill="#058DE4"/>
<path fill-rule="evenodd" clip-rule="evenodd" d="M21.0657 15.9799C20.8017 16.0139 20.6332 16.1599 20.5676 16.4118C20.5161 16.6098 20.5187 22.2643 20.5705 22.4488C20.6135 22.6022 20.7505 22.7568 20.9004 22.8211C21.0265 22.8751 28.7636 22.8904 28.7622 22.8365C28.7618 22.8214 28.747 22.7898 28.7292 22.7663C28.645 22.655 28.6946 22.4288 28.9009 21.984C29.0489 21.6648 29.0929 21.5604 29.0929 21.5285C29.0929 21.5019 28.4941 19.9665 28.3997 19.751C27.9913 18.819 27.9763 18.5818 28.3161 18.4263C28.6186 18.2878 28.8579 18.4277 29.0017 18.827C29.0366 18.9238 29.1711 19.2951 29.3006 19.652C29.4301 20.009 29.5403 20.3142 29.5455 20.3303C29.5617 20.3806 29.6032 20.3469 29.6369 20.2561C29.7051 20.0729 29.7798 19.8804 29.8073 19.817C29.8231 19.7807 29.8578 19.6916 29.8845 19.619C29.9113 19.5464 29.9417 19.4672 29.9521 19.443C29.9624 19.4188 30.0361 19.2315 30.1158 19.0268C30.2904 18.5785 30.3095 18.5446 30.4317 18.4635C30.746 18.2551 31.18 18.4939 31.1314 18.8486C31.1174 18.9508 31.053 19.124 30.8408 19.63C30.7723 19.7934 30.6196 20.1646 30.5014 20.455C30.3832 20.7454 30.2148 21.1563 30.1273 21.368C30.0398 21.5798 29.9505 21.7976 29.929 21.852C29.7695 22.2555 29.5658 22.7299 29.5309 22.7789C29.5078 22.8113 29.4889 22.8437 29.4889 22.8509C29.4889 22.8581 29.8286 22.864 30.2436 22.864H30.9983L31.1095 22.8086C31.1706 22.7782 31.2558 22.7152 31.2989 22.6686C31.4566 22.4982 31.4469 22.7103 31.4467 19.4037L31.4465 16.429L31.393 16.319C31.3189 16.1665 31.2478 16.0953 31.1004 16.0263L30.9739 15.967L26.0899 15.9644C23.4037 15.963 21.1428 15.97 21.0657 15.9799ZM23.2739 17.143C24.7053 17.5325 24.932 19.4087 23.628 20.0745C23.3804 20.201 23.2185 20.2288 22.6469 20.2433L22.1079 20.257L22.0969 20.884C22.0866 21.4721 22.083 21.5165 22.0386 21.599C21.8504 21.9493 21.2965 21.9259 21.137 21.561C21.0851 21.4422 21.0595 17.7966 21.1085 17.5019C21.1498 17.2541 21.2914 17.1147 21.5249 17.0923C21.8592 17.06 23.1013 17.096 23.2739 17.143ZM22.1021 18.6675L22.1079 19.355L22.5259 19.3548C23.1925 19.3546 23.4244 19.1788 23.425 18.673C23.4257 18.1567 23.1907 17.98 22.5028 17.98H22.0963L22.1021 18.6675ZM26.3852 18.4233C26.5324 18.4738 26.6669 18.5516 26.7373 18.6269C26.8055 18.7 26.8496 18.699 26.9012 18.6235C27.1032 18.3279 27.583 18.3662 27.7571 18.6917C27.8135 18.7972 27.8467 21.1583 27.7951 21.3988C27.7086 21.8022 27.1426 21.9228 26.8978 21.5902C26.8351 21.5051 26.8291 21.5053 26.7186 21.5976C26.0111 22.1887 24.8429 21.716 24.5202 20.708C24.0949 19.3796 25.2057 18.0188 26.3852 18.4233ZM25.8413 19.3569C25.601 19.4767 25.443 19.7646 25.4415 20.0854C25.4369 21.0713 26.5965 21.2435 26.7839 20.2848C26.9106 19.637 26.3623 19.0973 25.8413 19.3569Z" fill="#06BC06"/>
<path fill-rule="evenodd" clip-rule="evenodd" d="M14.0037 5.9955C14.0057 6.54303 14.0108 6.9514 14.0149 6.903C14.0911 6.01156 14.9271 5.14338 15.826 5.02211C15.8926 5.01309 15.5089 5.00445 14.9735 5.00286L14 5L14.0037 5.9955ZM34.031 5.01375C34.0552 5.01853 34.1295 5.033 34.196 5.04592C34.4147 5.08838 34.856 5.26339 34.856 5.30772C34.856 5.31713 34.9201 5.36657 34.9984 5.41761C35.2008 5.5495 35.648 6.05594 35.648 6.15335C35.648 6.15956 35.6724 6.21798 35.7022 6.2831C35.7585 6.40641 35.7976 6.51871 35.8487 6.705C35.9003 6.89266 35.8932 25.1171 35.8415 25.284C35.8209 25.3505 35.7978 25.4297 35.7902 25.46C35.7825 25.4902 35.7659 25.5397 35.7532 25.57C35.7405 25.6002 35.7204 25.6497 35.7085 25.68C35.6966 25.7102 35.6781 25.7499 35.6673 25.768C35.6565 25.7862 35.6358 25.8258 35.6213 25.856C35.4707 26.1698 35.0756 26.5451 34.724 26.7084C34.4196 26.8497 34.3061 26.8866 34.086 26.9158C33.8593 26.946 16.0797 26.9827 15.914 26.9534C15.3028 26.8453 14.9592 26.6696 14.5866 26.2746C14.2637 25.9323 14.0923 25.5631 14.0142 25.042C14.0097 25.0117 14.0046 25.4399 14.003 25.9935L14 27H25H36V16V5L34.9935 5.00253C34.4399 5.00396 34.0068 5.00902 34.031 5.01375ZM34.24 5.48516C33.9556 5.54351 33.6735 5.60209 33.613 5.6154C33.5525 5.62876 32.9288 5.75361 32.227 5.89287C31.5252 6.03218 30.7877 6.17964 30.588 6.22062C30.3884 6.26154 29.8686 6.36505 29.433 6.45057C28.9974 6.5361 28.6014 6.61513 28.553 6.62624C28.431 6.65424 28.307 6.67887 27.651 6.80543C27.3364 6.86615 26.9899 6.93452 26.881 6.9574C26.7721 6.98022 26.6583 7.00338 26.628 7.00888C26.5978 7.01438 26.3205 7.07003 26.012 7.13257C25.7034 7.19505 25.4015 7.25549 25.341 7.26682C25.2805 7.27815 25.1369 7.30741 25.022 7.33189C24.907 7.35631 24.714 7.39558 24.593 7.41912C23.6744 7.59793 18.2711 8.67994 18.158 8.70777C18.0793 8.72713 17.985 8.75067 17.9483 8.76007C17.7422 8.81298 17.353 9.0474 17.1299 9.2531C16.6241 9.71922 16.3525 10.5826 16.5022 11.248C16.5172 11.3145 16.5941 11.7006 16.6731 12.106C16.7521 12.5113 16.8319 12.9123 16.8504 12.997C16.8751 13.1099 17.2849 15.1737 17.4161 15.846C17.422 15.8762 17.4816 16.1732 17.5484 16.506C17.6153 16.8387 17.7152 17.3387 17.7706 17.617C18.0047 18.7932 18.0698 19.119 18.0916 19.223C18.1626 19.5614 18.2764 20.1249 18.3025 20.268C18.3477 20.515 18.5691 21.6205 18.6087 21.797C18.6401 21.9374 19.0335 23.9133 19.1692 24.613C19.1786 24.6614 19.2018 24.7753 19.2207 24.866C19.2396 24.9568 19.3159 25.3428 19.3901 25.724C19.4644 26.1051 19.5475 26.521 19.5747 26.648L19.6244 26.879H26.887C32.6679 26.879 34.1554 26.8734 34.1773 26.8515C34.1924 26.8364 34.2271 26.824 34.2544 26.824C34.2816 26.824 34.3316 26.8129 34.3655 26.7993C34.3993 26.7857 34.4468 26.7669 34.471 26.7574C34.6157 26.7013 34.7484 26.6331 34.8592 26.5578C34.9287 26.5106 34.9926 26.472 35.0012 26.472C35.0807 26.472 35.5715 25.8621 35.6562 25.658C35.7762 25.3687 35.7911 25.3099 35.8256 24.9874C35.8601 24.6661 35.8423 6.79146 35.8075 6.7567C35.7924 6.74158 35.7798 6.70891 35.7797 6.6841C35.7788 6.5576 35.597 6.15764 35.4491 5.957C35.2751 5.72072 34.8728 5.36878 34.7858 5.37659C34.7699 5.37802 34.5243 5.42686 34.24 5.48516ZM29.4015 9.6365C29.7201 9.79787 29.7099 9.70382 29.7029 12.425L29.697 14.713L29.6387 14.823C29.4552 15.169 29.0022 15.2326 28.7253 14.9512C28.5522 14.7754 28.5605 14.9153 28.5682 12.282L28.575 9.961L28.6335 9.862C28.7966 9.58618 29.1167 9.49224 29.4015 9.6365ZM23.9812 9.92706C24.4458 9.96551 24.6479 10.1413 24.6507 10.5096C24.6527 10.7625 24.5134 10.992 23.7817 11.941C23.6138 12.1589 23.5454 12.2467 23.3277 12.524C23.2338 12.6437 22.7763 13.2432 22.58 13.5038C22.4986 13.6119 22.3541 13.7976 22.2639 13.91C22.2202 13.9644 22.1843 14.0164 22.1842 14.0255C22.1841 14.0346 22.6638 14.042 23.2502 14.042C24.4431 14.042 24.4709 14.0452 24.6192 14.2014C24.8517 14.4465 24.8049 14.9253 24.5328 15.0847C24.3662 15.1824 24.2345 15.189 22.5994 15.1817C21.0786 15.1749 21.0725 15.1747 20.9417 15.1254C20.5526 14.9788 20.3983 14.6062 20.5725 14.2338C20.6365 14.0971 20.8583 13.7858 21.1073 13.4834C21.1382 13.4457 21.2669 13.2789 21.3933 13.1124C21.5196 12.9461 21.6478 12.7774 21.678 12.7377C21.7083 12.698 21.8815 12.4742 22.063 12.2404C22.2445 12.0066 22.4178 11.7827 22.448 11.7427C22.4783 11.7028 22.6054 11.5391 22.7304 11.3788C22.8555 11.2186 22.9628 11.0747 22.9688 11.059C22.9776 11.036 22.7935 11.0291 22.0154 11.0229C20.9121 11.0142 20.9144 11.0146 20.7295 10.8296C20.374 10.4741 20.6424 9.96303 21.2035 9.92712C21.5546 9.90462 23.7094 9.90457 23.9812 9.92706ZM26.6302 11.4115C26.8115 11.45 27.0331 11.5566 27.1386 11.6561C27.2382 11.7501 27.2232 11.7524 27.342 11.6254C27.6257 11.3221 28.1165 11.4102 28.2811 11.7941C28.3327 11.9145 28.3452 14.5862 28.2949 14.7545C28.2083 15.0447 27.8069 15.2098 27.5127 15.0762C27.4231 15.0356 27.266 14.8933 27.266 14.8529C27.266 14.818 27.2336 14.8335 27.1491 14.9087C26.4801 15.5041 25.2825 15.1441 24.8344 14.2129C24.3941 13.298 24.6281 12.294 25.4332 11.6438C25.6889 11.4373 26.2438 11.3296 26.6302 11.4115ZM32.1886 11.4226C34.031 11.8028 34.1327 14.5559 32.3252 15.1234C31.9522 15.2406 31.3232 15.1916 30.9435 15.0159C29.8106 14.4917 29.569 12.7769 30.5 11.8676C30.9192 11.4582 31.5524 11.2913 32.1886 11.4226ZM26.287 12.455C25.9054 12.5552 25.6876 13.0354 25.7947 13.5404C25.9362 14.2071 26.7398 14.3679 27.0541 13.7925C27.4305 13.1034 26.9576 12.2789 26.287 12.455ZM31.5853 12.4557C30.9516 12.6194 30.8786 13.79 31.4843 14.0766C31.9904 14.316 32.468 13.9416 32.4687 13.305C32.4694 12.6853 32.094 12.3243 31.5853 12.4557ZM31.1209 15.9855C31.282 16.057 31.3612 16.1304 31.4305 16.2718L31.49 16.3932V19.4252V22.4572L31.4075 22.5971C31.3427 22.707 31.2971 22.7541 31.195 22.817L31.065 22.897L30.282 22.908C29.3509 22.9211 29.3981 22.9336 29.5127 22.7039C29.5563 22.6165 29.624 22.4658 29.6632 22.369C29.7024 22.2722 29.7599 22.1336 29.7909 22.061C29.8221 21.9884 29.8695 21.8746 29.8963 21.808C30.0044 21.54 30.106 21.2951 30.1455 21.2075C30.1685 21.1566 30.2574 20.9391 30.3432 20.724C30.4289 20.509 30.5241 20.2785 30.5546 20.2119C30.585 20.1452 30.61 20.0781 30.61 20.0627C30.61 20.0474 30.6184 20.0254 30.6286 20.0139C30.6388 20.0024 30.6695 19.9336 30.6967 19.861C30.7573 19.6996 30.7683 19.6726 30.8363 19.52C31.1346 18.8498 31.1496 18.6549 30.9142 18.5023C30.6932 18.359 30.3483 18.4804 30.2876 18.7229C30.2793 18.7559 30.2505 18.8275 30.2235 18.882C30.1965 18.9364 30.1591 19.0255 30.1404 19.08C30.1217 19.1344 30.0554 19.3077 29.9931 19.465C29.8152 19.9139 29.8066 19.9362 29.719 20.169C29.5996 20.4863 29.5525 20.5128 29.4898 20.2976C29.4726 20.239 29.4504 20.1762 29.4404 20.158C29.417 20.1155 29.1361 19.3493 29.1359 19.3275C29.1358 19.3184 29.1198 19.2813 29.1003 19.245C29.0808 19.2087 29.052 19.1344 29.0363 19.08C28.8694 18.5008 28.6528 18.3191 28.323 18.4815C28.0765 18.6029 28.0534 18.7912 28.2334 19.212C28.2567 19.2664 28.3116 19.405 28.3554 19.52C28.3992 19.6349 28.4682 19.8082 28.5088 19.905C28.7141 20.3944 29.136 21.483 29.136 21.5235C29.136 21.549 29.1063 21.634 29.07 21.7125C29.0337 21.7909 29.004 21.8586 29.004 21.8629C29.004 21.8672 28.9693 21.9458 28.927 22.0375C28.8846 22.1291 28.85 22.2141 28.85 22.2261C28.85 22.2382 28.8423 22.248 28.8329 22.248C28.7675 22.248 28.716 22.6698 28.7723 22.7443C28.7901 22.7678 28.8049 22.8142 28.8053 22.8475L28.806 22.908H24.8906H20.9752L20.8529 22.8501C20.6987 22.7771 20.5766 22.6399 20.5277 22.4848C20.4724 22.3094 20.4693 16.5395 20.5245 16.3539C20.5675 16.2091 20.6897 16.0725 20.8465 15.994L20.963 15.9357L25.9839 15.9348L31.0047 15.934L31.1209 15.9855ZM21.4221 17.1583C21.3297 17.1782 21.201 17.3128 21.1748 17.4171C21.1573 17.4864 21.15 18.1025 21.15 19.504V21.4925L21.2151 21.5897C21.3555 21.7995 21.5924 21.8585 21.8216 21.7408C22.0297 21.634 22.0404 21.5932 22.0445 20.8917C22.0491 20.1233 21.9772 20.2089 22.6291 20.1957C23.4018 20.1801 23.7047 20.0683 24.0813 19.6598C24.4653 19.2431 24.545 18.4567 24.2558 17.936C24.0714 17.604 23.736 17.338 23.339 17.2091C23.1915 17.1612 21.6045 17.1191 21.4221 17.1583ZM23.0286 17.9743C23.6084 18.1822 23.6335 19.0912 23.0667 19.3517C22.9205 19.4189 22.0894 19.4379 22.0651 19.3746C22.0468 19.3269 22.0473 18.0178 22.0656 17.97C22.0862 17.9166 22.8775 17.9202 23.0286 17.9743ZM25.737 18.4247C25.4772 18.4916 25.4172 18.5137 25.2883 18.5898C24.0643 19.313 24.2799 21.3944 25.616 21.7548C26.0177 21.8632 26.4958 21.7635 26.7256 21.5235C26.8055 21.4401 26.8536 21.4383 26.912 21.5165C27.1454 21.8289 27.6128 21.7974 27.7319 21.4612C27.7881 21.3024 27.773 18.8032 27.7152 18.706C27.5798 18.478 27.282 18.4051 27.0489 18.5428C27.011 18.5651 26.98 18.5891 26.98 18.5958C26.98 18.6185 26.8508 18.75 26.8286 18.75C26.8165 18.75 26.7621 18.7114 26.7076 18.6642C26.4684 18.4572 26.0305 18.3491 25.737 18.4247ZM26.3758 19.2927C27.0323 19.5164 26.9589 20.8348 26.2835 20.9487C25.7924 21.0316 25.4398 20.7286 25.4031 20.1922C25.3578 19.5308 25.8201 19.1033 26.3758 19.2927Z" fill="#FBFBFB"/>
<path fill-rule="evenodd" clip-rule="evenodd" d="M15.8164 5.04293C15.6281 5.07808 15.4956 5.11333 15.3984 5.15414C14.6314 5.47644 14.1566 6.08254 14.0352 6.89473C13.9934 7.17396 13.9829 24.7189 14.0243 25.0053C14.1241 25.6958 14.4088 26.1882 14.9209 26.556C15.138 26.7119 15.6186 26.9154 15.7585 26.9106C15.8095 26.9088 15.8071 26.9061 15.7394 26.8882C14.8817 26.6606 14.3229 26.1188 14.1055 25.3036L14.0564 25.1196V15.9786V6.83758L14.1067 6.65058C14.328 5.82564 15.0033 5.20419 15.8274 5.06697C15.9289 5.05008 18.6109 5.04497 25.0454 5.04937L34.1204 5.05558L34.2744 5.10162C34.4959 5.16784 34.7695 5.28642 34.7692 5.31612C34.7691 5.33223 34.2604 5.44185 33.3887 5.61372C32.6296 5.76343 31.9787 5.89378 31.9424 5.90341C31.9061 5.91298 31.5151 5.99146 31.0734 6.0777C30.6318 6.16394 30.2358 6.24353 30.1934 6.25453C30.1511 6.26547 29.859 6.32465 29.5444 6.38598C29.2298 6.4473 28.9279 6.50736 28.8734 6.51935C28.77 6.54223 28.4854 6.6002 28.3344 6.62913C27.8561 6.72087 27.7649 6.73979 27.7552 6.74947C27.7286 6.77615 27.9287 6.73825 29.9677 6.33043C31.1506 6.09387 32.1679 5.89142 32.2284 5.88047C32.2889 5.86958 32.482 5.8302 32.6574 5.79297C32.8329 5.75573 33.0259 5.71641 33.0864 5.70557C33.2299 5.67983 33.9569 5.53656 34.0984 5.50609C34.1589 5.49311 34.248 5.4738 34.2964 5.46324C34.3448 5.45268 34.4438 5.43305 34.5164 5.41957C34.739 5.37821 34.8374 5.34752 34.8292 5.322C34.8054 5.2472 34.3882 5.08985 34.0654 5.03386C33.7609 4.981 16.1014 4.9898 15.8164 5.04293ZM27.3764 6.81509C27.2488 6.84193 27.13 6.86959 27.1124 6.87652C27.0567 6.89847 27.1723 6.89412 27.2726 6.87053C27.3242 6.85837 27.4506 6.82972 27.5534 6.80684C27.6563 6.78401 27.7107 6.76548 27.6744 6.76575C27.6381 6.76603 27.5041 6.78819 27.3764 6.81509ZM26.8269 6.92498C26.6715 6.95902 26.6253 6.97651 26.6844 6.97882C26.7392 6.98102 27.0253 6.92201 27.0423 6.90507C27.0612 6.88609 26.9625 6.89522 26.8269 6.92498ZM26.4424 7.00544C26.394 7.01622 25.6614 7.1623 24.8144 7.33011C23.9674 7.49791 23.2497 7.64009 23.2194 7.64619C23.1892 7.65224 22.7932 7.73144 22.3394 7.82225C21.3274 8.02476 21.5247 7.98494 20.7334 8.14658C20.3644 8.22199 20.0377 8.28837 20.0074 8.29404C19.9772 8.29976 19.8782 8.31972 19.7874 8.33837C19.6967 8.35701 19.5828 8.37984 19.5344 8.38913C17.7243 8.73624 17.6604 8.75719 17.1752 9.16474C16.4479 9.77552 16.2946 10.4564 16.5721 11.8426C16.6461 12.2116 16.751 12.7363 16.8055 13.0086C16.9331 13.6474 16.9405 13.6843 16.9915 13.9326C17.0151 14.0475 17.0388 14.1663 17.0443 14.1966C17.0497 14.2268 17.1088 14.5238 17.1755 14.8566C17.2424 15.1893 17.3017 15.4863 17.3075 15.5166C17.3133 15.5468 17.3332 15.6458 17.3518 15.7366C17.3704 15.8273 17.3903 15.9263 17.3959 15.9566C17.4171 16.0685 17.7427 17.6944 17.8057 18.0026C17.8415 18.178 18.0695 19.3215 18.3123 20.5436C18.5551 21.7657 18.7628 22.8052 18.7738 22.8536C18.7848 22.902 18.8054 23.001 18.8194 23.0736C18.8335 23.1462 18.8533 23.2452 18.8634 23.2936C18.8736 23.342 18.8927 23.436 18.9059 23.5026C18.9191 23.5691 18.9558 23.7523 18.9874 23.9096C19.0189 24.0669 19.0494 24.2203 19.0551 24.2506C19.0607 24.2808 19.0805 24.3798 19.0991 24.4706C19.1177 24.5613 19.1375 24.6603 19.1431 24.6906C19.1487 24.7208 19.1686 24.8198 19.1872 24.9106C19.2059 25.0013 19.2286 25.1152 19.2378 25.1636C19.2767 25.3685 19.3727 25.8532 19.3926 25.9446C19.4182 26.0623 19.4784 26.3599 19.5017 26.4836C19.5635 26.812 19.5742 26.8912 19.559 26.9064C19.5495 26.9158 18.7103 26.9236 17.6942 26.9236C16.6781 26.9236 15.8696 26.93 15.8976 26.9379C15.9946 26.9652 19.5563 26.9589 19.5838 26.9314C19.6146 26.9006 19.6496 27.0953 19.2725 25.1966C19.0983 24.3193 18.9003 23.3194 18.8324 22.9746C18.7646 22.6297 18.6999 22.308 18.6889 22.2596C18.6778 22.2112 18.6481 22.0676 18.6228 21.9406C18.5975 21.8135 18.5411 21.5314 18.4975 21.3136C18.4539 21.0958 18.4138 20.8928 18.4086 20.8626C18.4034 20.8323 18.3905 20.768 18.38 20.7196C18.3696 20.6712 18.3505 20.5771 18.3376 20.5106C18.3248 20.444 18.295 20.2955 18.2714 20.1806C18.2478 20.0656 18.2241 19.9468 18.2186 19.9166C18.2027 19.828 18.0527 19.0793 18.028 18.9651C18.0156 18.9076 17.9953 18.8136 17.9828 18.7561C17.9704 18.6986 17.9013 18.3496 17.8295 17.9806C17.7576 17.6115 17.6792 17.2155 17.6553 17.1006C17.6313 16.9856 17.5269 16.4609 17.4233 15.9346C17.3197 15.4082 17.2255 14.938 17.2139 14.8896C17.2024 14.8412 17.148 14.564 17.093 14.2736C17.0381 13.9832 16.9842 13.7109 16.9733 13.6686C16.9624 13.6262 16.8729 13.1807 16.7745 12.6786C16.6761 12.1764 16.5867 11.7309 16.5757 11.6886C16.3812 10.9324 16.4085 10.4346 16.6753 9.87336C16.7876 9.63725 16.9921 9.35141 17.1391 9.22524C17.5593 8.86455 17.8292 8.74861 18.5774 8.60726C18.6319 8.59698 18.7507 8.573 18.8414 8.55408C18.9827 8.52454 24.0994 7.50061 24.2534 7.47102C24.5691 7.41041 25.2073 7.28385 25.2764 7.26812C25.3248 7.25712 25.4189 7.23743 25.4854 7.22429C25.552 7.2112 25.6856 7.18436 25.7824 7.16467C25.8792 7.14498 25.998 7.12133 26.0464 7.11203C26.5248 7.02029 26.616 7.00137 26.6256 6.99169C26.6419 6.97547 26.5441 6.98284 26.4424 7.00544ZM28.93 9.61959C28.7915 9.67542 28.6644 9.79961 28.6151 9.92737C28.5638 10.0604 28.5546 14.5754 28.6053 14.7431C28.7271 15.1457 29.3124 15.2432 29.5711 14.9039C29.6916 14.746 29.6889 14.8112 29.6824 12.3005L29.6764 9.96158L29.6182 9.86258C29.4765 9.62141 29.1828 9.51773 28.93 9.61959ZM29.3726 9.67421C29.4615 9.71551 29.5055 9.75544 29.5706 9.85356L29.6544 9.97973L29.6611 12.2587C29.6661 13.9675 29.6612 14.5695 29.6414 14.6651C29.5393 15.1586 28.8519 15.233 28.651 14.7723C28.6039 14.6644 28.5846 10.1358 28.6305 9.97577C28.7152 9.68042 29.0734 9.53489 29.3726 9.67421ZM20.982 9.97066C20.4401 10.1554 20.4808 10.851 21.0414 10.9863C21.0838 10.9966 21.5417 11.0059 22.0589 11.0071C22.6805 11.0085 22.9994 11.0168 22.9994 11.0316C22.9994 11.0559 22.8205 11.2937 22.365 11.8751C22.2036 12.0811 21.9843 12.3634 21.8776 12.5026C21.7708 12.6417 21.5762 12.8954 21.445 13.0664C21.3137 13.2374 21.1817 13.4099 21.1514 13.4498C21.1212 13.4898 21.027 13.6122 20.9421 13.722C20.5141 14.2752 20.4598 14.4124 20.5484 14.7172C20.6086 14.9242 20.7821 15.0721 21.0357 15.1327C21.2815 15.1915 24.2735 15.1748 24.4395 15.1138C24.9562 14.9237 24.8112 14.0565 24.2644 14.0666C24.1776 14.0683 24.178 14.0686 24.2974 14.096C24.4785 14.1376 24.5256 14.1624 24.6096 14.2606C24.8285 14.5162 24.7489 14.9353 24.4553 15.073L24.3304 15.1316H22.7354C21.0227 15.1316 21.0285 15.1319 20.827 15.0177C20.4953 14.8298 20.4599 14.4043 20.7449 14.0316C20.8862 13.8467 21.2369 13.3874 21.4697 13.0821C21.5911 12.9228 21.7941 12.6605 21.9207 12.4991C22.5103 11.7474 23.0434 11.0434 23.0434 11.0164C23.0434 10.992 22.8649 10.9855 22.0369 10.9801L21.0304 10.9736L20.9204 10.9151C20.49 10.6864 20.5454 10.1572 21.0173 9.98969C21.1549 9.94085 24.0503 9.94976 24.2109 9.99953C24.8169 10.1873 24.7234 10.7143 23.9072 11.7104C23.8728 11.7524 23.3657 12.4057 23.1643 12.6676C23.0805 12.7765 22.868 13.0529 22.6922 13.2818C22.0455 14.1234 22.0859 14.0646 22.1538 14.0646C22.1726 14.0646 22.1824 14.0555 22.1756 14.0445C22.1688 14.0334 22.1995 13.9765 22.244 13.918C22.3695 13.7529 22.4548 13.6425 22.5217 13.5586C22.5554 13.5162 22.5905 13.4717 22.5997 13.4596C22.6089 13.4475 22.7209 13.299 22.8487 13.1296C22.9765 12.9602 23.179 12.6963 23.2988 12.5432C24.4984 11.0089 24.6378 10.7973 24.6361 10.5116C24.6343 10.2024 24.4972 10.0418 24.1654 9.95999C23.9586 9.909 21.1352 9.91846 20.982 9.97066ZM26.1124 11.4052C25.1221 11.5492 24.4426 12.645 24.6815 13.7126C24.7437 13.9908 24.7582 14.0336 24.8586 14.2332C25.3214 15.1536 26.5521 15.4967 27.1655 14.8764C27.2463 14.7948 27.2464 14.7948 27.3264 14.9083C27.5097 15.1682 27.9384 15.1852 28.1589 14.9412C28.3207 14.762 28.3124 14.8516 28.3124 13.2836V11.8756L28.2605 11.7766C28.0679 11.4092 27.5573 11.3493 27.3237 11.6666C27.245 11.7736 27.246 11.7736 27.1422 11.6755C26.9165 11.4623 26.4897 11.3503 26.1124 11.4052ZM31.4914 11.414C29.5335 11.684 29.3758 14.6087 31.2914 15.1252C31.6721 15.2278 32.23 15.1773 32.5869 15.0078C34.0762 14.3008 33.8968 11.8953 32.323 11.4696C32.0077 11.3843 31.8048 11.3707 31.4914 11.414ZM26.6224 11.4553C26.8073 11.495 27.0182 11.6014 27.1244 11.7084C27.2357 11.8205 27.2493 11.82 27.3356 11.6998C27.5706 11.3727 28.1261 11.452 28.2449 11.8298C28.3003 12.0058 28.2876 14.7016 28.231 14.8017C28.0405 15.1383 27.5456 15.1759 27.335 14.8698C27.2507 14.7472 27.2641 14.7477 27.1268 14.8629C26.6027 15.3026 25.7787 15.2282 25.2305 14.6916C23.9743 13.4622 24.9883 11.1046 26.6224 11.4553ZM32.178 11.4695C34.0731 11.8557 34.0303 14.8106 32.1252 15.1198C30.9331 15.3132 29.9734 14.4996 29.9734 13.2955C29.9734 12.0489 30.9702 11.2234 32.178 11.4695ZM26.2774 12.4081C25.893 12.5492 25.7109 12.8588 25.7327 13.3339C25.7524 13.7635 26.0059 14.1522 26.2664 14.1521C26.2911 14.1521 26.2606 14.1289 26.1967 14.0992C25.4068 13.7314 25.7263 12.3149 26.5743 12.4246C27.4654 12.5399 27.3796 14.1419 26.4817 14.1551C26.3351 14.1573 26.3231 14.1601 26.3984 14.1748C27.2409 14.3391 27.5675 12.8033 26.7663 12.4446C26.653 12.3938 26.3732 12.373 26.2774 12.4081ZM31.4973 12.4381C30.9056 12.6709 30.8552 13.8086 31.4238 14.0968C31.5556 14.1635 31.7617 14.1995 31.8764 14.1758C31.9529 14.16 31.9413 14.1573 31.7884 14.1549C31.2711 14.1468 30.9576 13.6632 31.0736 13.0521C31.21 12.3329 32.0799 12.1789 32.3933 12.8185C32.6233 13.288 32.4791 13.868 32.0772 14.0896C32.0152 14.1238 31.9797 14.152 31.9984 14.1522C32.2342 14.1549 32.4976 13.751 32.5201 13.3521C32.5586 12.6686 32.0551 12.2186 31.4973 12.4381ZM20.9644 15.978C20.9379 15.9891 20.9727 15.9917 21.0524 15.9845C21.125 15.9779 21.1886 15.9689 21.1936 15.9646C21.2123 15.9483 21.0068 15.9604 20.9644 15.978ZM30.8773 15.9644C30.8823 15.9688 30.926 15.9784 30.9744 15.9858C31.0344 15.995 31.0519 15.9926 31.0294 15.9783C30.9994 15.9591 30.8559 15.9461 30.8773 15.9644ZM31.0753 16.0088C31.0979 16.029 31.2274 16.0886 31.2274 16.0787C31.2274 16.066 31.1055 16.0006 31.0819 16.0006C31.0732 16.0006 31.0703 16.0043 31.0753 16.0088ZM31.2494 16.1045C31.2494 16.1162 31.2707 16.1446 31.2966 16.1677C31.3225 16.1907 31.3669 16.2591 31.3954 16.3196C31.4237 16.3801 31.447 16.4147 31.447 16.3966C31.447 16.3784 31.4183 16.3136 31.3833 16.2525C31.3198 16.1418 31.2494 16.064 31.2494 16.1045ZM20.5545 16.357C20.5209 16.4382 20.4966 22.2873 20.5296 22.3763C20.5389 22.4014 20.5439 21.0984 20.5407 19.4808C20.5358 16.9887 20.5397 16.5211 20.5664 16.4186C20.6028 16.2788 20.5977 16.2525 20.5545 16.357ZM31.4526 19.3996C31.4494 21.0331 31.4417 22.3943 31.4355 22.4246L31.4242 22.4796L31.4469 22.4279C31.4622 22.3931 31.4677 21.4104 31.4639 19.4029L31.4583 16.4296L31.4526 19.3996ZM21.9049 17.095C22.0713 17.0988 22.3436 17.0988 22.5099 17.095C22.6763 17.0913 22.5402 17.0882 22.2074 17.0882C21.8747 17.0882 21.7386 17.0913 21.9049 17.095ZM21.3819 17.1235C21.3726 17.1385 21.3892 17.1412 21.4301 17.1314C21.5144 17.1111 21.5224 17.1006 21.4534 17.1006C21.4219 17.1006 21.3897 17.1109 21.3819 17.1235ZM22.9573 17.1086C22.9623 17.1129 23.0258 17.1219 23.0984 17.1285C23.1781 17.1357 23.213 17.1331 23.1864 17.122C23.1441 17.1044 22.9386 17.0923 22.9573 17.1086ZM21.2382 17.2271L21.1624 17.3096L21.2502 17.2326C21.2985 17.1902 21.3422 17.1531 21.3474 17.1501C21.3525 17.1471 21.3472 17.1446 21.3354 17.1446C21.3237 17.1446 21.28 17.1817 21.2382 17.2271ZM23.3615 17.1897C23.4336 17.2123 23.4969 17.2265 23.5021 17.2212C23.513 17.2104 23.4881 17.2008 23.3624 17.1679C23.22 17.1306 23.2193 17.1451 23.3615 17.1897ZM23.6294 17.2957C23.805 17.3925 23.8777 17.4471 24.0551 17.6154C24.1457 17.7013 24.1853 17.733 24.1431 17.6858C23.9815 17.5051 23.8056 17.3624 23.6411 17.2784C23.5078 17.2104 23.4988 17.2236 23.6294 17.2957ZM21.0959 19.4656C21.0959 20.5183 21.0986 20.9522 21.1019 20.4297C21.1052 19.9073 21.1052 19.046 21.1019 18.5157C21.0986 17.9855 21.0959 18.4129 21.0959 19.4656ZM24.2681 17.8914C24.3017 17.9512 24.3328 17.9965 24.3373 17.9921C24.3468 17.9826 24.232 17.7826 24.2171 17.7826C24.2115 17.7826 24.2344 17.8315 24.2681 17.8914ZM22.2899 17.975C22.4019 17.979 22.585 17.979 22.6969 17.975C22.8089 17.971 22.7173 17.9677 22.4934 17.9677C22.2696 17.9677 22.178 17.971 22.2899 17.975ZM22.0852 18.6626C22.0852 19.0316 22.0882 19.1826 22.0919 18.9981C22.0956 18.8136 22.0956 18.5116 22.0919 18.3271C22.0882 18.1426 22.0852 18.2935 22.0852 18.6626ZM23.2326 18.1553C23.2702 18.1984 23.3172 18.2581 23.3371 18.288C23.3571 18.3179 23.3734 18.331 23.3734 18.317C23.3734 18.303 23.3264 18.2434 23.2689 18.1844C23.2115 18.1253 23.1951 18.1123 23.2326 18.1553ZM24.4453 18.4096C24.452 18.4822 24.4611 18.5457 24.4655 18.5508C24.4809 18.5685 24.4688 18.3869 24.4511 18.3326C24.4398 18.2984 24.4376 18.3276 24.4453 18.4096ZM25.9422 18.3701C25.9696 18.3754 26.0092 18.3752 26.0302 18.3697C26.0512 18.3642 26.0288 18.3599 25.9804 18.3601C25.932 18.3604 25.9148 18.3649 25.9422 18.3701ZM25.6394 18.3986C25.5959 18.4126 25.5936 18.4162 25.6284 18.4162C25.6526 18.4162 25.6972 18.4083 25.7274 18.3986C25.771 18.3846 25.7733 18.381 25.7384 18.381C25.7142 18.381 25.6697 18.3889 25.6394 18.3986ZM26.2224 18.3986C26.2466 18.409 26.2862 18.4175 26.3104 18.4175H26.3544L26.3104 18.3986C26.2862 18.3882 26.2466 18.3797 26.2224 18.3797H26.1784L26.2224 18.3986ZM28.3091 18.4298C28.2044 18.4786 28.0813 18.6102 28.0815 18.6732C28.0816 18.6855 28.1 18.6654 28.1224 18.6286C28.2197 18.4693 28.3967 18.3844 28.5859 18.4066C28.6571 18.4149 28.6704 18.4129 28.6314 18.3997C28.5324 18.366 28.4244 18.3761 28.3091 18.4298ZM30.5674 18.3993C30.5319 18.4112 30.5553 18.4132 30.6334 18.4051C30.7 18.3982 30.7586 18.389 30.7636 18.3846C30.7812 18.3692 30.622 18.3811 30.5674 18.3993ZM26.49 18.4837C26.5646 18.5191 26.6714 18.5903 26.7273 18.6418L26.829 18.7356L26.938 18.6134C27.0628 18.4733 27.1846 18.4285 27.3846 18.4491L27.4984 18.4607L27.4016 18.4368C27.2151 18.3908 27.0082 18.4683 26.9017 18.624C26.8478 18.7029 26.8172 18.7003 26.7156 18.6085C26.6281 18.5294 26.5039 18.4586 26.4094 18.4338C26.3792 18.4258 26.4154 18.4483 26.49 18.4837ZM28.757 18.4638C28.7958 18.4874 28.8575 18.5591 28.8943 18.6231C28.931 18.6872 28.9611 18.7291 28.9612 18.7164C28.9619 18.6421 28.7728 18.4204 28.709 18.4206C28.6966 18.4207 28.7182 18.4401 28.757 18.4638ZM25.2654 18.5461C25.1243 18.6258 24.8093 18.9195 24.758 19.0193C24.7279 19.0777 24.7345 19.0711 24.8887 18.8889C25.0122 18.7429 25.1509 18.6316 25.3372 18.5289C25.4006 18.494 25.4425 18.4654 25.4304 18.4653C25.4183 18.4653 25.3441 18.5017 25.2654 18.5461ZM27.5419 18.4934C27.5961 18.5261 27.7093 18.6383 27.7463 18.6961C27.7616 18.72 27.7593 18.7083 27.7412 18.6701C27.7077 18.599 27.5615 18.4635 27.5209 18.4659C27.5086 18.4666 27.518 18.4789 27.5419 18.4934ZM23.433 18.6186C23.4399 18.6972 23.4492 18.7657 23.4535 18.7708C23.4703 18.7902 23.4574 18.5613 23.4393 18.5196C23.4276 18.4924 23.4251 18.53 23.433 18.6186ZM30.2907 18.6086C30.2585 18.6636 30.2358 18.7123 30.2404 18.7168C30.2449 18.7213 30.2758 18.6763 30.309 18.6168C30.385 18.4807 30.3697 18.4738 30.2907 18.6086ZM31.0074 18.5186C31.0074 18.5241 31.0322 18.5651 31.0624 18.6097C31.1277 18.7058 31.1364 18.6829 31.0737 18.5801C31.0346 18.516 31.0074 18.4908 31.0074 18.5186ZM31.1234 18.7946C31.1234 18.849 31.1277 18.8713 31.133 18.8441C31.1382 18.8169 31.1382 18.7723 31.133 18.7451C31.1277 18.7179 31.1234 18.7401 31.1234 18.7946ZM24.4413 18.9384C24.4328 19.0065 24.4304 19.0668 24.436 19.0724C24.4415 19.0781 24.4531 19.0268 24.4616 18.9588C24.4701 18.8906 24.4725 18.8303 24.4669 18.8247C24.4613 18.8191 24.4498 18.8703 24.4413 18.9384ZM27.7954 20.1366C27.7826 21.6396 27.7863 21.6206 27.4868 21.7401C27.4544 21.753 27.4467 21.7624 27.4676 21.7632C27.5157 21.7651 27.6693 21.651 27.7263 21.5711C27.8123 21.4503 27.8185 21.3416 27.8123 20.0706L27.8064 18.8496L27.7954 20.1366ZM23.377 18.9605C23.3402 19.0414 23.3472 19.0587 23.387 18.9852C23.4057 18.9508 23.4168 18.9186 23.4117 18.9135C23.4067 18.9085 23.3911 18.9297 23.377 18.9605ZM30.1079 19.039C30.0943 19.0779 30.0871 19.1136 30.0918 19.1183C30.0965 19.123 30.1114 19.095 30.125 19.0562C30.1386 19.0173 30.1458 18.9816 30.1411 18.9769C30.1364 18.9722 30.1214 19.0002 30.1079 19.039ZM23.2469 19.1597C23.1955 19.2142 23.1114 19.2778 23.0599 19.3012C23.0085 19.3245 22.9827 19.3438 23.0025 19.3441C23.055 19.3448 23.24 19.213 23.3029 19.1301C23.3773 19.0319 23.3579 19.0421 23.2469 19.1597ZM29.084 19.1026C29.0921 19.1328 29.108 19.1724 29.1191 19.1906C29.1333 19.2135 29.1351 19.2068 29.1248 19.1686C29.1168 19.1383 29.1009 19.0987 29.0898 19.0806C29.0756 19.0576 29.0738 19.0644 29.084 19.1026ZM24.6832 19.1375C24.6627 19.1688 24.6497 19.1982 24.6543 19.2028C24.659 19.2075 24.6801 19.1818 24.7014 19.1459C24.7488 19.0656 24.7346 19.0591 24.6832 19.1375ZM30.0188 19.269C29.993 19.3379 29.9758 19.3982 29.9804 19.4029C29.9851 19.4076 30.0098 19.3547 30.0353 19.2855C30.0608 19.2162 30.0781 19.1559 30.0737 19.1515C30.0693 19.1471 30.0446 19.2 30.0188 19.269ZM24.5934 19.3026C24.574 19.3401 24.5621 19.3746 24.5669 19.3793C24.5717 19.3841 24.592 19.3535 24.6122 19.3113C24.6574 19.2164 24.6417 19.2092 24.5934 19.3026ZM26.0629 19.2944C26.0962 19.2994 26.1507 19.2994 26.1839 19.2944C26.2172 19.2893 26.19 19.2852 26.1234 19.2852C26.0569 19.2852 26.0297 19.2893 26.0629 19.2944ZM30.945 19.3345C30.9082 19.4154 30.9152 19.4327 30.955 19.3592C30.9737 19.3248 30.9848 19.2926 30.9797 19.2875C30.9747 19.2825 30.9591 19.3037 30.945 19.3345ZM22.1166 19.3726C22.126 19.382 22.2964 19.3869 22.4951 19.3836L22.8564 19.3775L22.478 19.3665C22.2698 19.3605 22.1072 19.3633 22.1166 19.3726ZM24.2654 19.4606C24.2302 19.5231 24.1637 19.6152 24.1175 19.6653C24.0713 19.7155 24.0334 19.7645 24.0334 19.7742C24.0334 19.7839 24.068 19.7531 24.1103 19.7058C24.1937 19.6123 24.3515 19.3693 24.3377 19.3555C24.333 19.3509 24.3005 19.3981 24.2654 19.4606ZM25.6994 19.4307C25.6483 19.478 25.5886 19.5473 25.5667 19.5847C25.5096 19.6823 25.5351 19.6684 25.604 19.5644C25.636 19.5159 25.7032 19.4466 25.7532 19.4104C25.8031 19.3742 25.8324 19.3446 25.8182 19.3446C25.8041 19.3446 25.7506 19.3833 25.6994 19.4307ZM26.4876 19.4085C26.5885 19.4829 26.6599 19.574 26.7187 19.7035C26.7416 19.7542 26.7606 19.7807 26.7607 19.7626C26.7616 19.666 26.502 19.3446 26.4231 19.3446C26.4108 19.3446 26.4399 19.3733 26.4876 19.4085ZM24.4844 19.6086C24.4761 19.6466 24.4738 19.6823 24.4794 19.6879C24.485 19.6935 24.4959 19.6665 24.5037 19.6278C24.522 19.5361 24.5042 19.5184 24.4844 19.6086ZM29.326 19.7626C29.3341 19.7928 29.35 19.8324 29.3611 19.8506C29.3753 19.8735 29.3771 19.8668 29.3668 19.8286C29.3588 19.7983 29.3429 19.7587 29.3318 19.7406C29.3176 19.7176 29.3158 19.7244 29.326 19.7626ZM23.9014 19.8756L23.8024 19.9653L23.8956 19.8953C23.9767 19.8345 24.0287 19.7832 24.0073 19.7852C24.0035 19.7856 23.9559 19.8263 23.9014 19.8756ZM28.436 19.8396C28.4364 19.8517 28.4558 19.9012 28.479 19.9496C28.5023 19.998 28.5152 20.0128 28.5076 19.9826C28.4921 19.9203 28.4348 19.8059 28.436 19.8396ZM24.4377 20.1036C24.4377 20.2367 24.4413 20.2883 24.4457 20.2183C24.4501 20.1482 24.4501 20.0393 24.4456 19.9763C24.4412 19.9132 24.4376 19.9705 24.4377 20.1036ZM23.5974 20.0635C23.5331 20.094 23.485 20.1235 23.4908 20.1292C23.5021 20.1407 23.7254 20.0322 23.7254 20.0152C23.7254 20.0021 23.7362 19.998 23.5974 20.0635ZM25.425 20.1256C25.4252 20.174 25.4297 20.1912 25.435 20.1638C25.4403 20.1365 25.4401 20.0969 25.4346 20.0758C25.4291 20.0548 25.4247 20.0772 25.425 20.1256ZM30.5821 20.2063C30.5622 20.2569 30.5495 20.302 30.5539 20.3064C30.5583 20.3108 30.5784 20.2731 30.5986 20.2228C30.6188 20.1723 30.6315 20.1273 30.6268 20.1226C30.6221 20.1179 30.602 20.1556 30.5821 20.2063ZM23.1644 20.2026C23.1052 20.2177 23.1041 20.2194 23.1534 20.2198C23.1837 20.22 23.2332 20.2123 23.2634 20.2026C23.3374 20.1789 23.2575 20.1789 23.1644 20.2026ZM22.1118 20.2411C22.1061 20.2502 22.2417 20.255 22.413 20.2519C22.9958 20.2412 23.0554 20.2334 22.5883 20.229C22.3319 20.2266 22.1174 20.232 22.1118 20.2411ZM25.443 20.2924C25.4439 20.3217 25.4535 20.3654 25.4645 20.3896C25.4783 20.4203 25.4803 20.4069 25.471 20.3456C25.4555 20.2434 25.4407 20.2156 25.443 20.2924ZM26.7752 20.3153C26.7674 20.354 26.7652 20.3897 26.7702 20.3946C26.7752 20.3996 26.7861 20.3726 26.7944 20.3346C26.8028 20.2966 26.8051 20.2608 26.7994 20.2553C26.7938 20.2497 26.7829 20.2767 26.7752 20.3153ZM22.0754 20.8956C22.0693 21.2344 22.0568 21.5314 22.0476 21.5556C22.0383 21.5798 22.046 21.5671 22.0645 21.5274C22.0926 21.4671 22.0972 21.3578 22.0923 20.8674L22.0864 20.2796L22.0754 20.8956ZM29.5334 20.3589C29.5334 20.3801 29.5925 20.4002 29.6083 20.3844C29.6332 20.3595 29.6213 20.344 29.5774 20.344C29.5532 20.344 29.5334 20.3508 29.5334 20.3589ZM24.4535 20.394C24.4511 20.4516 24.4962 20.6712 24.508 20.6594C24.5125 20.6548 24.5026 20.5824 24.4859 20.4984C24.4692 20.4143 24.4546 20.3674 24.4535 20.394ZM26.6922 20.5558C26.6605 20.6154 26.6434 20.6585 26.6543 20.6518C26.6779 20.6372 26.7677 20.4655 26.7572 20.455C26.7532 20.451 26.7239 20.4964 26.6922 20.5558ZM25.5094 20.5271C25.5387 20.6042 25.6678 20.7708 25.7326 20.8149C25.76 20.8335 25.7348 20.7972 25.6766 20.7342C25.6184 20.6712 25.5564 20.5852 25.5388 20.5431C25.5011 20.4528 25.4761 20.4392 25.5094 20.5271ZM26.5402 20.7691L26.4644 20.8516L26.5469 20.7758C26.6237 20.7052 26.6396 20.6866 26.6227 20.6866C26.6191 20.6866 26.582 20.7237 26.5402 20.7691ZM28.7854 20.7157C28.7854 20.7433 28.9009 21.0184 28.9091 21.0103C28.9136 21.0057 28.8916 20.9384 28.8602 20.8608C28.8045 20.7232 28.7854 20.6862 28.7854 20.7157ZM26.3544 20.8744C26.3181 20.891 26.3033 20.9047 26.3214 20.9048C26.3396 20.9049 26.3792 20.8909 26.4094 20.8736C26.479 20.8338 26.4418 20.8344 26.3544 20.8744ZM25.9254 20.9055C25.9804 20.9242 26.117 20.9358 26.0996 20.9204C26.0946 20.9159 26.0409 20.9065 25.9804 20.8995C25.9062 20.891 25.8884 20.8929 25.9254 20.9055ZM24.7248 21.1395C24.762 21.2182 25.0673 21.5521 25.0855 21.5339C25.0922 21.5271 25.0761 21.5064 25.0495 21.4878C25.0023 21.4547 24.7757 21.197 24.7206 21.1137C24.7053 21.0905 24.7072 21.1021 24.7248 21.1395ZM29.0071 21.2586C29.0063 21.2646 29.031 21.3389 29.062 21.4236C29.0931 21.5083 29.1136 21.5479 29.1075 21.5116C29.0976 21.4517 29.0106 21.2325 29.0071 21.2586ZM26.7098 21.5785C26.5829 21.6953 26.5875 21.7082 26.7174 21.5996C26.8295 21.506 26.8356 21.5056 26.8972 21.5889C26.9242 21.6254 26.9715 21.6705 27.0023 21.6892L27.0584 21.723L27.0017 21.6723C26.9706 21.6444 26.9229 21.5894 26.8958 21.5501C26.8343 21.4609 26.8382 21.4603 26.7098 21.5785ZM21.1294 21.537C21.1294 21.7093 21.5679 21.9297 21.7298 21.8388C21.7517 21.8265 21.7033 21.8196 21.5952 21.8196C21.3912 21.8196 21.2906 21.7682 21.1927 21.6138C21.1579 21.5589 21.1294 21.5243 21.1294 21.537ZM25.1493 21.5902C25.1762 21.6182 25.2037 21.6356 25.2105 21.6288C25.2173 21.6221 25.1953 21.5991 25.1616 21.5779L25.1004 21.5393L25.1493 21.5902ZM21.9638 21.6685C21.9344 21.7003 21.8807 21.7449 21.8444 21.7674C21.8081 21.79 21.7878 21.8085 21.7992 21.8085C21.8338 21.8086 21.9885 21.6936 22.0115 21.6507C22.0413 21.595 22.0263 21.6006 21.9638 21.6685ZM29.9664 21.7106C29.9147 21.819 29.922 21.8374 29.976 21.735C30.0006 21.6885 30.0167 21.6466 30.012 21.6418C30.0072 21.637 29.9867 21.668 29.9664 21.7106ZM26.4974 21.7206C26.4551 21.7438 26.4284 21.7632 26.438 21.7636C26.4614 21.7649 26.5854 21.7003 26.5854 21.687C26.5854 21.6726 26.5842 21.6731 26.4974 21.7206ZM25.5404 21.7866C25.5646 21.797 25.5993 21.8055 25.6174 21.8055C25.6382 21.8055 25.6342 21.7985 25.6064 21.7866C25.5822 21.7762 25.5476 21.7677 25.5294 21.7677C25.5087 21.7677 25.5127 21.7746 25.5404 21.7866ZM27.2512 21.7804C27.2847 21.7854 27.3342 21.7853 27.3612 21.7801C27.3883 21.7749 27.3609 21.7707 27.3004 21.7709C27.2399 21.771 27.2178 21.7753 27.2512 21.7804ZM25.7396 21.8335C25.8251 21.8518 26.1427 21.8521 26.207 21.8339C26.2349 21.826 26.1265 21.8196 25.9662 21.8196C25.8059 21.8196 25.7039 21.8259 25.7396 21.8335ZM29.8851 21.9115C29.8356 22.04 29.8357 22.0467 29.8858 21.9555C29.9113 21.9093 29.9288 21.8616 29.9248 21.8495C29.9207 21.8374 29.9028 21.8653 29.8851 21.9115ZM28.833 22.1285C28.7962 22.2094 28.8032 22.2267 28.843 22.1532C28.8617 22.1188 28.8728 22.0866 28.8677 22.0815C28.8627 22.0765 28.8471 22.0977 28.833 22.1285ZM28.71 22.4372C28.7019 22.4694 28.6995 22.5 28.7047 22.5052C28.7099 22.5104 28.7208 22.4883 28.7288 22.456C28.737 22.4238 28.7394 22.3931 28.7342 22.388C28.729 22.3828 28.7181 22.4049 28.71 22.4372ZM20.6251 22.6116C20.6771 22.6898 20.7434 22.7581 20.7884 22.7798C20.8192 22.7946 20.8151 22.7857 20.7745 22.7502C20.7427 22.7224 20.6895 22.6699 20.6563 22.6336C20.6231 22.5973 20.6091 22.5874 20.6251 22.6116ZM31.2872 22.6776C31.2535 22.7182 31.1748 22.7769 31.1123 22.808C31.0499 22.8391 31.0145 22.8646 31.0336 22.8646C31.0814 22.8646 31.3201 22.7018 31.3541 22.646C31.397 22.5757 31.3554 22.5954 31.2872 22.6776ZM28.6974 22.6907C28.6974 22.7091 28.712 22.7434 28.7297 22.7669C28.7475 22.7904 28.7623 22.822 28.7627 22.837C28.7633 22.8588 27.9639 22.8656 24.8749 22.8701L20.9864 22.8757L24.8757 22.8811C27.9865 22.8855 28.767 22.881 28.7754 22.8589C28.7813 22.8436 28.7661 22.792 28.7418 22.7442C28.7174 22.6964 28.6974 22.6724 28.6974 22.6907ZM29.4864 22.8704C29.4957 22.8797 29.8343 22.8845 30.2388 22.8814L30.9744 22.8755L30.222 22.8646C29.8082 22.8585 29.4772 22.8611 29.4864 22.8704Z" fill="#9BD3E1"/>
<path fill-rule="evenodd" clip-rule="evenodd" d="M15.7058 5.04416C15.6775 5.05643 15.701 5.05868 15.7718 5.05049C15.8323 5.0435 15.8859 5.03426 15.891 5.02992C15.91 5.01347 15.7478 5.02596 15.7058 5.04416ZM34.7859 5.27626C34.8446 5.31735 34.8491 5.35134 34.7963 5.35376C34.7656 5.35513 34.7645 5.35805 34.7908 5.36811C34.9394 5.42498 35.2863 5.73496 35.4499 5.957C35.5977 6.15764 35.7796 6.5576 35.7804 6.6841C35.7806 6.7089 35.7932 6.74157 35.8083 6.7567C35.843 6.79146 35.8609 24.6661 35.8264 24.9874C35.7919 25.3099 35.777 25.3687 35.657 25.658C35.5723 25.8621 35.0815 26.472 35.002 26.472C34.9934 26.472 34.9295 26.5106 34.86 26.5578C34.7491 26.6331 34.6165 26.7013 34.4718 26.7574C34.4476 26.7669 34.4001 26.7857 34.3662 26.7992C34.3324 26.8129 34.2824 26.824 34.2551 26.824C34.2279 26.824 34.1932 26.8364 34.1781 26.8515C34.1562 26.8734 32.6684 26.879 26.8864 26.879H19.6222L19.6063 26.813C19.5919 26.7539 19.5911 26.7553 19.5987 26.8269C19.6034 26.8709 19.596 26.9179 19.5824 26.9316C19.5483 26.9657 33.8449 26.9517 34.0868 26.9173C34.3091 26.8858 34.4228 26.8486 34.7248 26.7084C35.0764 26.5451 35.4715 26.1698 35.622 25.856C35.6366 25.8257 35.6573 25.7861 35.6681 25.768C35.6789 25.7498 35.6987 25.7078 35.7122 25.6745C35.7257 25.6412 35.7459 25.5917 35.757 25.5645C35.768 25.5373 35.7833 25.4902 35.791 25.46C35.7985 25.4297 35.8216 25.3505 35.8423 25.284C35.894 25.1171 35.9011 6.89266 35.8495 6.705C35.7984 6.51871 35.7593 6.4064 35.703 6.28309C35.6731 6.21797 35.6488 6.15956 35.6488 6.15335C35.6488 6.06144 35.2154 5.56364 35.0224 5.43384C34.9495 5.38478 34.8661 5.32153 34.8373 5.29331C34.8084 5.2651 34.774 5.242 34.7609 5.242C34.7478 5.242 34.759 5.2574 34.7859 5.27626ZM14.996 5.3416C14.9326 5.38423 14.8808 5.42394 14.8808 5.42982C14.8808 5.43565 14.9352 5.4043 15.0018 5.36008C15.1075 5.2899 15.1386 5.264 15.117 5.264C15.1138 5.264 15.0594 5.29892 14.996 5.3416ZM14.6388 5.627C14.5853 5.68145 14.5465 5.726 14.5526 5.726C14.5586 5.726 14.6073 5.68145 14.6608 5.627C14.7142 5.57255 14.753 5.528 14.747 5.528C14.7409 5.528 14.6922 5.57255 14.6388 5.627ZM32.9758 5.72704C32.9451 5.7409 32.9585 5.74288 33.0198 5.73359C33.0682 5.72622 33.1119 5.71654 33.117 5.71208C33.1358 5.69542 33.018 5.7079 32.9758 5.72704ZM14.0283 6.837C14.0286 6.8854 14.0331 6.90261 14.0383 6.87522C14.0436 6.84789 14.0434 6.80829 14.0379 6.78722C14.0324 6.76621 14.0281 6.7886 14.0283 6.837ZM24.1758 7.486C24.1197 7.51009 24.1775 7.51009 24.2528 7.486C24.297 7.47186 24.2991 7.46823 24.2638 7.46774C24.2396 7.46741 24.2 7.4756 24.1758 7.486ZM17.5373 8.92859C17.4551 8.9732 17.4601 8.99179 17.5428 8.949C17.5791 8.93024 17.6088 8.91017 17.6088 8.90445C17.6088 8.89026 17.6064 8.89108 17.5373 8.92859ZM17.0576 9.3065L16.9818 9.389L17.0643 9.31321C17.1411 9.24259 17.1569 9.224 17.1401 9.224C17.1364 9.224 17.0993 9.26112 17.0576 9.3065ZM28.7665 9.7025C28.7204 9.74842 28.7135 9.75948 28.7508 9.72741C28.7876 9.69573 28.8376 9.65888 28.8618 9.64557C28.886 9.63226 28.893 9.62104 28.8775 9.62066C28.8618 9.62027 28.8119 9.65712 28.7665 9.7025ZM29.4092 9.64717C29.432 9.66246 29.4815 9.69942 29.5192 9.72923C29.5854 9.78159 29.5863 9.7817 29.5438 9.73247C29.5196 9.70442 29.4701 9.66752 29.4338 9.65041C29.3948 9.6321 29.3848 9.63078 29.4092 9.64717ZM22.0143 9.9225C22.3501 9.92591 22.8995 9.92591 23.2353 9.9225C23.5711 9.91909 23.2963 9.91628 22.6248 9.91628C21.9532 9.91628 21.6785 9.91909 22.0143 9.9225ZM24.3848 10.0229C24.3848 10.0283 24.4211 10.0605 24.4655 10.0944C24.51 10.1283 24.5394 10.1448 24.5309 10.131C24.5135 10.1028 24.3848 10.0076 24.3848 10.0229ZM29.6974 12.37C29.6974 13.6344 29.7 14.1517 29.7033 13.5195C29.7065 12.8873 29.7065 11.8527 29.7033 11.2205C29.7 10.5883 29.6974 11.1055 29.6974 12.37ZM20.633 10.2375C20.6138 10.2746 20.6012 10.3138 20.605 10.3245C20.6087 10.3352 20.6284 10.3048 20.6486 10.257C20.6924 10.1538 20.6826 10.1416 20.633 10.2375ZM24.5623 10.203C24.5623 10.2151 24.5765 10.2497 24.5938 10.28C24.611 10.3102 24.6252 10.3251 24.6252 10.313C24.6252 10.3009 24.611 10.2662 24.5938 10.236C24.5765 10.2057 24.5623 10.1909 24.5623 10.203ZM20.5848 10.456C20.5848 10.5104 20.5891 10.5327 20.5943 10.5055C20.5996 10.4783 20.5996 10.4337 20.5943 10.4065C20.5891 10.3793 20.5848 10.4015 20.5848 10.456ZM20.6128 10.6595C20.621 10.6867 20.6368 10.7187 20.6479 10.7305C20.6589 10.7423 20.6568 10.7201 20.6432 10.681C20.6154 10.6011 20.5896 10.5829 20.6128 10.6595ZM16.4503 10.819C16.4504 10.9158 16.4543 10.9526 16.4589 10.9009C16.4636 10.8492 16.4635 10.77 16.4588 10.7249C16.4541 10.6798 16.4503 10.7222 16.4503 10.819ZM20.6668 10.7709C20.6668 10.7747 20.699 10.8068 20.7383 10.8424L20.8098 10.907L20.7452 10.8355C20.6849 10.7688 20.6668 10.7539 20.6668 10.7709ZM21.5728 11.0224C21.811 11.026 22.207 11.026 22.4528 11.0225C22.6986 11.0189 22.5038 11.016 22.0198 11.016C21.5358 11.016 21.3346 11.0189 21.5728 11.0224ZM22.9521 11.0259C22.9697 11.0371 22.9752 11.0567 22.9652 11.0729C22.954 11.0911 22.9569 11.0953 22.9734 11.0851C23.0126 11.0609 23.0034 11.0059 22.9603 11.0063C22.9298 11.0066 22.9281 11.0107 22.9521 11.0259ZM16.4909 11.259C16.4915 11.2832 16.4995 11.3327 16.5088 11.369L16.5256 11.435L16.5267 11.369C16.5272 11.3327 16.5192 11.2832 16.5088 11.259L16.4899 11.215L16.4909 11.259ZM26.1283 11.3952C26.1495 11.4007 26.1841 11.4007 26.2053 11.3952C26.2265 11.3896 26.2091 11.3851 26.1668 11.3851C26.1244 11.3851 26.1071 11.3896 26.1283 11.3952ZM31.5736 11.3956C31.6009 11.4008 31.6405 11.4006 31.6616 11.3951C31.6826 11.3896 31.6602 11.3853 31.6118 11.3856C31.5634 11.3858 31.5462 11.3903 31.5736 11.3956ZM31.9036 11.3956C31.9309 11.4008 31.9705 11.4006 31.9916 11.3951C32.0126 11.3896 31.9902 11.3853 31.9418 11.3856C31.8934 11.3858 31.8762 11.3903 31.9036 11.3956ZM22.6344 11.5047C22.6005 11.5492 22.584 11.5786 22.5978 11.5701C22.6259 11.5527 22.7212 11.424 22.7059 11.424C22.7005 11.424 22.6683 11.4604 22.6344 11.5047ZM25.8478 11.446C25.8201 11.4579 25.816 11.4649 25.8368 11.4649C25.8549 11.4649 25.8896 11.4564 25.9138 11.446C25.9415 11.4341 25.9456 11.4271 25.9248 11.4271C25.9066 11.4271 25.872 11.4356 25.8478 11.446ZM27.7013 11.4619C27.7406 11.4668 27.805 11.4668 27.8443 11.4619C27.8836 11.4571 27.8514 11.453 27.7728 11.453C27.6941 11.453 27.662 11.4571 27.7013 11.4619ZM27.9708 11.501C28.001 11.5183 28.0357 11.5325 28.0478 11.5325C28.0599 11.5325 28.045 11.5183 28.0148 11.501C27.9845 11.4837 27.9499 11.4695 27.9378 11.4695C27.9257 11.4695 27.9405 11.4837 27.9708 11.501ZM31.0178 11.5216C30.8732 11.5911 30.9014 11.5933 31.0535 11.5243C31.1185 11.4947 31.1619 11.4701 31.1498 11.4695C31.1377 11.469 31.0783 11.4924 31.0178 11.5216ZM28.0808 11.5409C28.0808 11.5447 28.113 11.5768 28.1523 11.6124L28.2238 11.677L28.1592 11.6055C28.0989 11.5388 28.0808 11.5239 28.0808 11.5409ZM30.7801 11.6435C30.7233 11.6795 30.6768 11.7138 30.6768 11.7196C30.6768 11.7254 30.7263 11.6994 30.7868 11.6618C30.8838 11.6015 30.9128 11.578 30.8901 11.578C30.8864 11.578 30.8369 11.6075 30.7801 11.6435ZM22.5231 11.6495C22.4581 11.7236 22.4202 11.776 22.4314 11.776C22.4369 11.776 22.4733 11.7364 22.5121 11.688C22.5877 11.5941 22.5953 11.5671 22.5231 11.6495ZM27.3058 11.6628C27.2768 11.6973 27.2388 11.7312 27.2214 11.738C27.1947 11.7486 27.1949 11.7508 27.2228 11.7522C27.2409 11.7532 27.2834 11.7193 27.3172 11.677C27.3907 11.5849 27.3813 11.5732 27.3058 11.6628ZM32.9868 11.831C33.0278 11.8733 33.0664 11.908 33.0724 11.908C33.0785 11.908 33.0498 11.8733 33.0088 11.831C32.9677 11.7886 32.9292 11.754 32.9231 11.754C32.9171 11.754 32.9457 11.7886 32.9868 11.831ZM22.3685 11.8475C22.2953 11.9301 22.1804 12.084 22.1919 12.084C22.1979 12.084 22.2533 12.0196 22.3151 11.941C22.4261 11.7998 22.4538 11.7514 22.3685 11.8475ZM28.3068 11.952C28.3068 12.0064 28.3111 12.0287 28.3163 12.0015C28.3216 11.9743 28.3216 11.9297 28.3163 11.9025C28.3111 11.8753 28.3068 11.8975 28.3068 11.952ZM25.0984 11.9575L25.0338 12.029L25.1053 11.9644C25.1446 11.9288 25.1768 11.8967 25.1768 11.8929C25.1768 11.8759 25.1586 11.8908 25.0984 11.9575ZM23.6614 12.0785C23.5976 12.1606 23.582 12.1876 23.6264 12.139C23.7115 12.0459 23.7996 11.93 23.7852 11.93C23.7805 11.93 23.7248 11.9968 23.6614 12.0785ZM33.283 12.1665C33.3169 12.2179 33.3488 12.26 33.354 12.26C33.3698 12.26 33.2856 12.1261 33.2525 12.0988C33.2354 12.0846 33.249 12.1151 33.283 12.1665ZM22.0968 12.194C22.0584 12.2424 22.032 12.282 22.0381 12.282C22.0441 12.282 22.0804 12.2424 22.1188 12.194C22.1571 12.1456 22.1835 12.106 22.1775 12.106C22.1714 12.106 22.1351 12.1456 22.0968 12.194ZM24.8681 12.2722C24.8415 12.3152 24.8235 12.3541 24.8281 12.3587C24.8328 12.3633 24.8589 12.3281 24.8863 12.2805C24.9484 12.1727 24.9337 12.1659 24.8681 12.2722ZM30.1378 12.348C30.119 12.3843 30.1086 12.414 30.1146 12.414C30.1207 12.414 30.141 12.3843 30.1598 12.348C30.1785 12.3117 30.189 12.282 30.1829 12.282C30.1769 12.282 30.1565 12.3117 30.1378 12.348ZM33.3981 12.3587C33.4182 12.4009 33.4385 12.4315 33.4433 12.4268C33.4534 12.4167 33.3866 12.282 33.3716 12.282C33.366 12.282 33.3779 12.3165 33.3981 12.3587ZM26.4366 12.4298C26.47 12.4348 26.5195 12.4347 26.5466 12.4295C26.5736 12.4243 26.5463 12.4201 26.4858 12.4203C26.4253 12.4204 26.4031 12.4247 26.4366 12.4298ZM31.7163 12.4298C31.7496 12.4348 31.804 12.4348 31.8373 12.4298C31.8706 12.4247 31.8433 12.4206 31.7768 12.4206C31.7102 12.4206 31.683 12.4247 31.7163 12.4298ZM32.1996 12.5797C32.2325 12.6144 32.2634 12.6382 32.2682 12.6328C32.273 12.6274 32.2461 12.5991 32.2084 12.5699L32.1398 12.5168L32.1996 12.5797ZM21.7637 12.6285C21.7004 12.7049 21.6736 12.744 21.6845 12.744C21.6905 12.744 21.722 12.7093 21.7543 12.667C21.8142 12.5884 21.8215 12.5588 21.7637 12.6285ZM31.2257 12.6905C31.1877 12.7459 31.16 12.7945 31.1642 12.7988C31.1684 12.803 31.2041 12.7577 31.2435 12.6982C31.3338 12.5618 31.3188 12.5553 31.2257 12.6905ZM25.9019 12.7233C25.8756 12.7603 25.8576 12.7942 25.8621 12.7987C25.8666 12.8032 25.8925 12.7729 25.9197 12.7314C25.981 12.6379 25.9672 12.6316 25.9019 12.7233ZM29.9559 12.92C29.9559 12.9623 29.9604 12.9797 29.966 12.9585C29.9715 12.9373 29.9715 12.9027 29.966 12.8815C29.9604 12.8603 29.9559 12.8776 29.9559 12.92ZM16.8436 13.019C16.8438 13.0432 16.8515 13.0927 16.8608 13.129C16.8758 13.1883 16.8776 13.1894 16.878 13.14C16.8782 13.1097 16.8705 13.0602 16.8608 13.03C16.847 12.9869 16.8432 12.9845 16.8436 13.019ZM24.6352 13.272C24.6352 13.4232 24.6388 13.4851 24.6431 13.4095C24.6473 13.3339 24.6473 13.2101 24.6431 13.1345C24.6388 13.0589 24.6352 13.1207 24.6352 13.272ZM33.6112 13.272C33.6112 13.4232 33.6148 13.4851 33.6191 13.4095C33.6233 13.3339 33.6233 13.2101 33.6191 13.1345C33.6148 13.0589 33.6112 13.1207 33.6112 13.272ZM22.8104 13.1767C22.7765 13.2212 22.76 13.2506 22.7738 13.2421C22.8019 13.2247 22.8972 13.096 22.8819 13.096C22.8765 13.096 22.8443 13.1324 22.8104 13.1767ZM25.7565 13.272C25.7565 13.3748 25.7603 13.4169 25.7649 13.3655C25.7695 13.3141 25.7695 13.2299 25.7649 13.1785C25.7603 13.1271 25.7565 13.1691 25.7565 13.272ZM31.0583 13.283C31.0584 13.3798 31.0623 13.4166 31.0669 13.3649C31.0716 13.3132 31.0715 13.234 31.0668 13.1889C31.0621 13.1438 31.0583 13.1862 31.0583 13.283ZM27.1861 13.294C27.1861 13.3847 27.1901 13.4219 27.1948 13.3765C27.1996 13.3311 27.1996 13.2569 27.1948 13.2115C27.1901 13.1661 27.1861 13.2032 27.1861 13.294ZM32.488 13.283C32.4881 13.3677 32.4921 13.3997 32.4968 13.354C32.5016 13.3084 32.5015 13.2391 32.4967 13.2C32.4918 13.161 32.4879 13.1983 32.488 13.283ZM22.5808 13.4655C22.5808 13.4792 22.549 13.5279 22.5101 13.5737C22.4467 13.6484 22.4458 13.6513 22.5011 13.602C22.5707 13.54 22.6127 13.4725 22.5935 13.4534C22.5866 13.4464 22.5808 13.4518 22.5808 13.4655ZM21.0628 13.536C21.0369 13.5723 21.0208 13.602 21.0268 13.602C21.0329 13.602 21.0589 13.5723 21.0848 13.536C21.1106 13.4997 21.1268 13.47 21.1207 13.47C21.1147 13.47 21.0886 13.4997 21.0628 13.536ZM27.1474 13.5706C27.1392 13.6028 27.1369 13.6335 27.142 13.6386C27.1473 13.6438 27.1581 13.6217 27.1662 13.5894C27.1743 13.5572 27.1767 13.5265 27.1715 13.5214C27.1663 13.5162 27.1555 13.5383 27.1474 13.5706ZM20.9238 13.7125C20.8439 13.8255 20.8592 13.8252 20.9501 13.712C20.989 13.6636 21.0129 13.6242 21.0033 13.6245C20.9936 13.6247 20.9579 13.6643 20.9238 13.7125ZM27.0568 13.7948C27.0331 13.8394 26.9845 13.9107 26.9486 13.9534C26.8856 14.0284 26.8855 14.0292 26.9434 13.9773C27.004 13.9232 27.1238 13.7377 27.1083 13.7221C27.1036 13.7175 27.0805 13.7502 27.0568 13.7948ZM32.3407 13.8275L32.3011 13.899L32.3465 13.844C32.3867 13.7952 32.4045 13.756 32.3865 13.756C32.3831 13.756 32.3625 13.7882 32.3407 13.8275ZM31.222 13.877C31.2345 13.9012 31.2729 13.9457 31.3072 13.9759L31.3698 14.0308L31.3039 13.9539C31.1997 13.832 31.1982 13.8307 31.222 13.877ZM20.7063 14.0035C20.6424 14.0886 20.6171 14.13 20.6288 14.13C20.6334 14.13 20.6693 14.0854 20.7084 14.031C20.7895 13.918 20.7878 13.895 20.7063 14.0035ZM22.1821 14.0482C22.1928 14.0588 22.2298 14.0639 22.2646 14.0595C22.3228 14.0523 22.3212 14.0507 22.2453 14.0402C22.198 14.0337 22.171 14.037 22.1821 14.0482ZM22.9163 14.0585C23.1795 14.062 23.6101 14.062 23.8733 14.0585C24.1365 14.055 23.9211 14.0521 23.3948 14.0521C22.8684 14.0521 22.6531 14.055 22.9163 14.0585ZM30.0608 14.0526C30.0608 14.081 30.1743 14.3056 30.1951 14.3184C30.2054 14.3248 30.1826 14.2677 30.1443 14.1915C30.0668 14.037 30.0608 14.027 30.0608 14.0526ZM24.4838 14.1225C24.5201 14.1415 24.5844 14.1881 24.6267 14.2261L24.7037 14.295L24.6377 14.2215C24.5755 14.1523 24.4744 14.085 24.4354 14.0869C24.4257 14.0874 24.4475 14.1034 24.4838 14.1225ZM26.709 14.1011C26.7007 14.1094 26.652 14.123 26.6009 14.1313C26.5103 14.1461 26.5099 14.1466 26.5848 14.1485C26.6271 14.1496 26.6865 14.1363 26.7168 14.119C26.747 14.1017 26.7611 14.0872 26.748 14.0868C26.7348 14.0863 26.7173 14.0928 26.709 14.1011ZM32.011 14.1011C32.0027 14.1094 31.954 14.123 31.9029 14.1313C31.8123 14.1461 31.8119 14.1466 31.8868 14.1485C31.9291 14.1496 31.9885 14.1363 32.0188 14.119C32.049 14.1017 32.0631 14.0872 32.05 14.0868C32.0368 14.0863 32.0193 14.0928 32.011 14.1011ZM26.3376 14.1456C26.3649 14.1508 26.4045 14.1506 26.4256 14.1451C26.4466 14.1396 26.4242 14.1353 26.3758 14.1356C26.3274 14.1358 26.3102 14.1403 26.3376 14.1456ZM31.6283 14.1452C31.6495 14.1507 31.6841 14.1507 31.7053 14.1452C31.7265 14.1396 31.7091 14.1351 31.6668 14.1351C31.6244 14.1351 31.6071 14.1396 31.6283 14.1452ZM33.3747 14.2675L33.3351 14.339L33.3805 14.284C33.4207 14.2352 33.4385 14.196 33.4205 14.196C33.4171 14.196 33.3965 14.2282 33.3747 14.2675ZM25.1878 14.7211C25.2241 14.7612 25.2835 14.8145 25.3198 14.8396C25.3978 14.8934 25.3802 14.8744 25.2318 14.7446C25.1505 14.6735 25.139 14.6673 25.1878 14.7211ZM30.5307 14.741C30.5481 14.7692 30.6768 14.8644 30.6768 14.8491C30.6768 14.8437 30.6404 14.8115 30.596 14.7776C30.5516 14.7437 30.5222 14.7272 30.5307 14.741ZM17.1923 14.7918C17.1932 14.8211 17.2028 14.8648 17.2138 14.889C17.2277 14.9197 17.2297 14.9063 17.2204 14.845C17.2048 14.7429 17.1901 14.715 17.1923 14.7918ZM28.2568 14.808C28.2568 14.8514 28.0864 15.0196 28.005 15.0565C27.9559 15.0788 27.9286 15.0972 27.9444 15.0975C28.0015 15.0985 28.0997 15.0313 28.1882 14.9306C28.2706 14.8371 28.2972 14.79 28.2678 14.79C28.2617 14.79 28.2568 14.7981 28.2568 14.808ZM27.1911 14.8457C27.1676 14.8635 27.1596 14.878 27.1733 14.878C27.187 14.878 27.2043 14.8681 27.2118 14.856C27.2338 14.8203 27.2574 14.8304 27.2888 14.8889C27.3049 14.9192 27.3223 14.9399 27.3272 14.9349C27.3388 14.9233 27.2663 14.8118 27.2477 14.8127C27.24 14.8131 27.2146 14.8279 27.1911 14.8457ZM24.6539 14.9502C24.6145 15.0105 24.597 15.0476 24.6152 15.0325C24.6537 15.0006 24.7456 14.8568 24.7338 14.847C24.7294 14.8434 24.6934 14.8898 24.6539 14.9502ZM29.5142 14.9597C29.42 15.0577 29.4289 15.0693 29.5293 14.9792C29.5726 14.9404 29.6363 14.8514 29.616 14.8581C29.6126 14.8592 29.5668 14.9049 29.5142 14.9597ZM30.7538 14.9091C30.7901 14.9403 30.8289 14.9658 30.84 14.9659C30.8638 14.966 30.8636 14.9658 30.7648 14.902L30.6878 14.8524L30.7538 14.9091ZM20.6343 14.9197C20.6875 14.9841 20.8404 15.0981 20.8736 15.0979C20.8869 15.0979 20.8631 15.0771 20.8208 15.0517C20.7784 15.0264 20.7093 14.9744 20.6673 14.9363C20.6199 14.8935 20.6073 14.8871 20.6343 14.9197ZM28.6748 14.9069C28.6748 14.9107 28.707 14.9428 28.7463 14.9784L28.8178 15.043L28.7532 14.9715C28.6929 14.9048 28.6748 14.8899 28.6748 14.9069ZM26.9533 15.0226C26.8711 15.0672 26.8761 15.0858 26.9588 15.043C26.9951 15.0242 27.0248 15.0042 27.0248 14.9984C27.0248 14.9843 27.0224 14.9851 26.9533 15.0226ZM20.9968 15.142C21.027 15.1517 21.0716 15.1596 21.0958 15.1596C21.1306 15.1596 21.1283 15.156 21.0848 15.142C21.0545 15.1323 21.01 15.1244 20.9858 15.1244C20.951 15.1244 20.9532 15.128 20.9968 15.142ZM21.9829 15.1805C22.3982 15.1839 23.0714 15.1839 23.4789 15.1805C23.8864 15.1771 23.5466 15.1744 22.7238 15.1744C21.901 15.1744 21.5676 15.1771 21.9829 15.1805ZM26.1063 15.1792C26.1275 15.1847 26.1621 15.1847 26.1833 15.1792C26.2045 15.1736 26.1871 15.1691 26.1448 15.1691C26.1024 15.1691 26.0851 15.1736 26.1063 15.1792ZM26.4583 15.1792C26.4795 15.1847 26.5141 15.1847 26.5353 15.1792C26.5565 15.1736 26.5391 15.1691 26.4968 15.1691C26.4544 15.1691 26.4371 15.1736 26.4583 15.1792ZM31.5183 15.1792C31.5395 15.1847 31.5741 15.1847 31.5953 15.1792C31.6165 15.1736 31.5991 15.1691 31.5568 15.1691C31.5144 15.1691 31.4971 15.1736 31.5183 15.1792ZM31.9583 15.1792C31.9795 15.1847 32.0141 15.1847 32.0353 15.1792C32.0565 15.1736 32.0391 15.1691 31.9968 15.1691C31.9544 15.1691 31.9371 15.1736 31.9583 15.1792ZM20.8472 15.994C20.6904 16.0725 20.5683 16.2091 20.5253 16.3539C20.4701 16.5395 20.4732 22.3094 20.5285 22.4848C20.5774 22.6399 20.6995 22.7771 20.8537 22.8501L20.976 22.908H24.8914H28.8068L28.8061 22.8475C28.8057 22.8142 28.7908 22.7678 28.7731 22.7443C28.7168 22.6698 28.7683 22.248 28.8337 22.248C28.8431 22.248 28.8508 22.2382 28.8508 22.2261C28.8508 22.2141 28.8854 22.1291 28.9278 22.0375C28.9701 21.9458 29.0048 21.8672 29.0048 21.8629C29.0048 21.8586 29.0345 21.7909 29.0708 21.7125C29.1071 21.634 29.1368 21.549 29.1368 21.5235C29.1368 21.4829 28.7149 20.3944 28.5096 19.905C28.469 19.8082 28.3999 19.6349 28.3562 19.52C28.3124 19.405 28.2575 19.2664 28.2342 19.212C28.0542 18.7912 28.0773 18.6029 28.3238 18.4815C28.6535 18.3191 28.8702 18.5008 29.0371 19.08C29.0528 19.1344 29.0816 19.2087 29.1011 19.245C29.1206 19.2813 29.1366 19.3184 29.1367 19.3275C29.1368 19.3493 29.4178 20.1155 29.4412 20.158C29.4512 20.1761 29.4734 20.239 29.4905 20.2976C29.5533 20.5127 29.6004 20.4863 29.7198 20.169C29.8074 19.9362 29.816 19.9139 29.9939 19.465C30.0562 19.3077 30.1225 19.1344 30.1412 19.08C30.1599 19.0255 30.1973 18.9364 30.2242 18.882C30.2512 18.8275 30.2801 18.7559 30.2884 18.7229C30.349 18.4804 30.694 18.359 30.915 18.5023C31.1503 18.6549 31.1354 18.8498 30.8371 19.52C30.7691 19.6726 30.7581 19.6996 30.6975 19.861C30.6702 19.9336 30.6395 20.0024 30.6294 20.0139C30.6191 20.0254 30.6108 20.0474 30.6108 20.0627C30.6108 20.0781 30.5858 20.1452 30.5553 20.2119C30.5249 20.2785 30.4297 20.509 30.344 20.724C30.2582 20.9391 30.1692 21.1566 30.1463 21.2075C30.1068 21.2951 30.0052 21.54 29.8971 21.808C29.8703 21.8745 29.8228 21.9884 29.7917 22.061C29.7606 22.1336 29.7032 22.2722 29.664 22.369C29.6248 22.4658 29.557 22.6165 29.5135 22.7039C29.3989 22.9336 29.3517 22.9211 30.2828 22.908L31.0657 22.897L31.1958 22.817C31.2979 22.7541 31.3434 22.707 31.4083 22.5971L31.4908 22.4572V19.4252V16.3932L31.4313 16.2718C31.362 16.1303 31.2828 16.057 31.1217 15.9855L31.0055 15.934L25.9847 15.9348L20.9638 15.9356L20.8472 15.994ZM31.1388 16.0278C31.2935 16.105 31.4021 16.2339 31.4461 16.3921C31.4967 16.5745 31.4751 22.3614 31.4232 22.5C31.3719 22.6373 31.2922 22.7266 31.1424 22.8147L31.0398 22.875L30.2836 22.8818C29.403 22.8898 29.446 22.8962 29.5215 22.7675C29.5528 22.7141 29.6682 22.4491 29.7781 22.1787C30.1333 21.3041 30.1742 21.2041 30.2058 21.1315C30.2228 21.0922 30.2508 21.0278 30.268 20.9885C30.2851 20.9492 30.37 20.7388 30.4568 20.521C30.5435 20.3032 30.6285 20.0928 30.6456 20.0535C30.9452 19.3659 31.101 18.9551 31.1105 18.8275C31.1424 18.3991 30.5208 18.2348 30.3071 18.6151C30.281 18.6615 30.1812 18.9014 30.0854 19.1483C29.9895 19.395 29.8472 19.7603 29.7692 19.96C29.6911 20.1596 29.6212 20.3402 29.6138 20.3611C29.5995 20.402 29.5328 20.3918 29.5328 20.3487C29.5328 20.3282 29.393 19.9372 29.2247 19.487C29.1894 19.3925 29.1249 19.2152 28.9662 18.7765C28.8313 18.4033 28.4861 18.2807 28.2223 18.5122C27.996 18.7109 27.9907 18.6872 28.5978 20.2066C28.8821 20.9184 29.1148 21.5111 29.1148 21.5238C29.1148 21.5365 29.09 21.6009 29.0598 21.667C29.0295 21.7332 29.0048 21.7912 29.0048 21.796C29.0048 21.8007 28.9552 21.9102 28.8947 22.0392C28.6944 22.4659 28.666 22.5963 28.7411 22.7437C28.7655 22.7915 28.7807 22.843 28.7748 22.8583C28.7663 22.8804 27.9836 22.886 24.8839 22.886H21.0036L20.8627 22.8145C20.6963 22.73 20.5984 22.6128 20.5471 22.4363C20.5156 22.328 20.5126 22.0133 20.5179 19.3723L20.5238 16.429L20.5744 16.319C20.652 16.1506 20.7523 16.0595 20.9418 15.9852C20.9917 15.9657 22.2287 15.959 26.0018 15.9579L30.9958 15.9563L31.1388 16.0278ZM21.4119 17.1344C21.2705 17.178 21.1623 17.3017 21.1301 17.4566C21.1127 17.5408 21.1072 18.1485 21.1116 19.5323L21.1178 21.489L21.1795 21.594C21.3415 21.8696 21.7257 21.9133 21.9466 21.6813C22.0677 21.5541 22.0748 21.5097 22.0748 20.8739C22.0748 20.4474 22.0819 20.2891 22.1023 20.2624C22.126 20.2314 22.2015 20.2253 22.6578 20.2179C23.3423 20.2068 23.5631 20.1465 23.8875 19.8821C24.9797 18.9918 24.464 17.3034 23.0438 17.12C22.7899 17.0872 21.529 17.0983 21.4119 17.1344ZM23.3398 17.2091C23.7368 17.338 24.0722 17.604 24.2566 17.936C24.5458 18.4567 24.4661 19.2431 24.0821 19.6598C23.7055 20.0683 23.4026 20.1801 22.6298 20.1957C21.978 20.2089 22.0499 20.1233 22.0453 20.8917C22.0412 21.5932 22.0304 21.634 21.8224 21.7408C21.5931 21.8585 21.3563 21.7995 21.2159 21.5897L21.1508 21.4925V19.504C21.1508 17.3017 21.147 17.3643 21.2881 17.2435C21.4054 17.1432 21.3552 17.1475 22.3278 17.1536C23.1527 17.1588 23.1917 17.1609 23.3398 17.2091ZM22.0664 17.97C22.048 18.0178 22.0476 19.3269 22.0659 19.3746C22.0902 19.4379 22.9213 19.4189 23.0675 19.3517C23.6343 19.0912 23.6092 18.1822 23.0294 17.9743C22.8783 17.9202 22.0869 17.9166 22.0664 17.97ZM23.0693 18.0211C23.6484 18.3053 23.5454 19.237 22.9211 19.3624C22.6928 19.4082 22.1249 19.3965 22.0975 19.3454C22.0726 19.2988 22.0647 18.054 22.0889 17.9908C22.1134 17.927 22.9288 17.9522 23.0693 18.0211ZM25.624 18.4205C24.2968 18.7636 24.0202 20.8337 25.1988 21.6033C25.6846 21.9205 26.3599 21.9025 26.7293 21.5624L26.8329 21.467L26.8793 21.5319C27.107 21.8501 27.5473 21.8444 27.7288 21.521L27.7838 21.423V20.092V18.761L27.7231 18.6677C27.5434 18.3913 27.1587 18.3644 26.9373 18.6128L26.8283 18.735L26.7269 18.6415C26.4711 18.4058 26.0261 18.3166 25.624 18.4205ZM26.2576 18.4357C26.3971 18.4638 26.5894 18.5613 26.7084 18.6642C26.7629 18.7114 26.8173 18.75 26.8294 18.75C26.8516 18.75 26.9808 18.6185 26.9808 18.5958C26.9808 18.5891 27.0118 18.5651 27.0497 18.5428C27.2828 18.4051 27.5806 18.478 27.716 18.706C27.7738 18.8032 27.7889 21.3024 27.7327 21.4612C27.6136 21.7974 27.1462 21.8289 26.9128 21.5165C26.8543 21.4383 26.8063 21.4401 26.7264 21.5235C26.4966 21.7635 26.0185 21.8632 25.6168 21.7548C24.2807 21.3944 24.0651 19.313 25.289 18.5898C25.418 18.5137 25.478 18.4916 25.7378 18.4247C25.8369 18.3992 26.1041 18.4048 26.2576 18.4357ZM17.9623 18.6638C17.9632 18.6931 17.9728 18.7368 17.9838 18.761C17.9977 18.7917 17.9997 18.7783 17.9904 18.717C17.9748 18.6149 17.9601 18.587 17.9623 18.6638ZM25.9358 19.2711C25.1922 19.4395 25.2323 20.8182 25.9846 20.9492C26.5123 21.0411 26.8427 20.6866 26.8235 20.0493C26.8063 19.4822 26.4362 19.1577 25.9358 19.2711ZM26.3915 19.3315C26.7697 19.491 26.9356 20.1362 26.7094 20.5682C26.432 21.0981 25.6829 21.0337 25.4879 20.4633C25.2417 19.7434 25.7773 19.0726 26.3915 19.3315ZM18.2612 20.125C18.2686 20.1734 18.2782 20.2171 18.2827 20.2222C18.2994 20.241 18.2869 20.1232 18.2677 20.081C18.2539 20.0503 18.2519 20.0637 18.2612 20.125ZM18.6132 21.885C18.6206 21.9334 18.6302 21.9771 18.6347 21.9822C18.6514 22.001 18.6389 21.8832 18.6197 21.841C18.6059 21.8103 18.6039 21.8237 18.6132 21.885ZM18.9552 23.601C18.9552 23.6252 18.9631 23.6697 18.9728 23.7C18.9867 23.7436 18.9904 23.7458 18.9904 23.711C18.9904 23.6868 18.9825 23.6422 18.9728 23.612C18.9588 23.5684 18.9552 23.5662 18.9552 23.601ZM14.1563 25.603C14.1563 25.6151 14.1705 25.6497 14.1878 25.68C14.205 25.7102 14.2192 25.7251 14.2192 25.713C14.2192 25.7009 14.205 25.6662 14.1878 25.636C14.1705 25.6057 14.1563 25.5909 14.1563 25.603ZM14.4848 26.1709C14.4848 26.1747 14.517 26.2068 14.5563 26.2424L14.6278 26.307L14.5632 26.2355C14.5029 26.1688 14.4848 26.1539 14.4848 26.1709ZM14.7158 26.406C14.763 26.4544 14.8066 26.494 14.8127 26.494C14.8187 26.494 14.785 26.4544 14.7378 26.406C14.6905 26.3576 14.6469 26.318 14.6409 26.318C14.6348 26.318 14.6685 26.3576 14.7158 26.406ZM15.0568 26.6589C15.0568 26.6736 15.3235 26.8067 15.3333 26.7968C15.3377 26.7924 15.2773 26.7572 15.1991 26.7186C15.1208 26.68 15.0568 26.6531 15.0568 26.6589ZM15.7443 26.9272C15.7655 26.9327 15.8001 26.9327 15.8213 26.9272C15.8425 26.9216 15.8251 26.9171 15.7828 26.9171C15.7404 26.9171 15.7231 26.9216 15.7443 26.9272ZM16.8663 26.9725C17.3594 26.9758 18.1662 26.9758 18.6593 26.9725C19.1524 26.9692 18.7489 26.9665 17.7628 26.9665C16.7766 26.9665 16.3732 26.9692 16.8663 26.9725Z" fill="#C5ECDC"/>
</g>
<defs>
<clipPath id="clip0_515_585">
<rect width="22" height="22" fill="white" transform="translate(14 5)"/>
</clipPath>
</defs>
</svg>
