<svg width="142" height="55" viewBox="0 0 142 55" xmlns="http://www.w3.org/2000/svg">
<path d="M3.08144 2.98633C4.53978 3.0319 5.81582 3.05469 6.90957 3.05469C8.00332 3.00911 8.89199 2.98633 9.57558 2.98633H11.558C12.0593 2.94076 12.6745 2.91797 13.4037 2.91797C14.0417 2.91797 14.8165 2.91797 15.7279 2.91797C16.6394 2.91797 17.6876 2.94076 18.8725 2.98633C19.237 4.26237 19.6472 5.51562 20.1029 6.74609C20.6042 7.93099 21.0372 9.00195 21.4018 9.95898C21.8575 11.0983 22.3132 12.1693 22.7689 13.1719C23.2247 14.1745 23.7715 15.3822 24.4096 16.7949C24.9564 17.9798 25.6173 19.4382 26.392 21.1699C27.1667 22.8561 28.0782 24.793 29.1264 26.9805C29.6277 25.5677 30.0834 24.2689 30.4936 23.084C30.9493 21.8991 31.3367 20.8737 31.6557 20.0078C32.0202 19.0052 32.3165 18.0938 32.5443 17.2734C32.7722 16.4531 33.0229 15.4505 33.2963 14.2656C33.5242 13.263 33.7748 12.0553 34.0482 10.6426C34.3673 9.22982 34.6863 7.58919 35.0053 5.7207C36.3269 5.7207 37.5118 5.7207 38.56 5.7207C39.6081 5.7207 40.5196 5.69792 41.2943 5.65234C42.1602 5.65234 42.935 5.62956 43.6186 5.58398C44.3477 5.58398 45.3275 5.53841 46.558 5.44727C47.6062 5.35612 48.9962 5.28776 50.7279 5.24219C52.5053 5.15104 54.6928 5.03711 57.2904 4.90039C56.3334 5.58398 55.5587 6.26758 54.9662 6.95117C54.4193 7.58919 53.9864 8.15885 53.6674 8.66016C53.3028 9.2526 53.0749 9.82227 52.9838 10.3691C52.8926 10.8249 52.8015 11.873 52.7104 13.5137C52.6648 15.1543 52.5964 17.1139 52.5053 19.3926C52.4597 21.6257 52.4141 24.0182 52.3686 26.5703C52.3686 29.1224 52.3913 31.5378 52.4369 33.8164C52.4825 36.0951 52.5508 38.0775 52.642 39.7637C52.7787 41.4043 52.961 42.4525 53.1889 42.9082C53.5079 43.4551 53.9408 44.0931 54.4877 44.8223C54.989 45.4603 55.627 46.1895 56.4018 47.0098C57.2221 47.8301 58.293 48.7415 59.6146 49.7441C57.5183 49.8353 55.7637 49.9036 54.351 49.9492C52.9838 49.9948 51.8445 50.0404 50.933 50.0859C49.8848 50.1315 49.0417 50.1543 48.4037 50.1543C47.7201 50.1543 46.7859 50.1771 45.601 50.2227C44.5528 50.2682 43.1628 50.3366 41.4311 50.4277C39.6993 50.4733 37.4662 50.5645 34.7318 50.7012C35.3699 49.972 35.9623 49.2428 36.5092 48.5137C37.0561 47.7845 37.5118 47.1237 37.8764 46.5312C38.3321 45.8477 38.7195 45.1868 39.0385 44.5488C39.3575 43.6829 39.6081 42.1107 39.7904 39.832C39.9727 37.8724 40.1094 35.0697 40.2006 31.4238C40.2917 27.7324 40.2917 22.7878 40.2006 16.5898C39.3347 18.0026 38.56 19.4154 37.8764 20.8281C37.2383 22.1953 36.6687 23.4486 36.1674 24.5879C35.6205 25.9095 35.1192 27.1855 34.6635 28.416C34.2077 29.6921 33.7292 31.1048 33.2279 32.6543C32.7722 33.9759 32.2253 35.5482 31.5873 37.3711C30.9949 39.194 30.3113 41.1992 29.5365 43.3867L26.9389 43.5234C26.5743 41.7005 26.2097 40.0599 25.8451 38.6016C25.4805 37.0977 25.1159 35.8216 24.7514 34.7734C24.3412 33.543 23.9311 32.4492 23.5209 31.4922C23.0652 30.5352 22.5639 29.4642 22.017 28.2793C21.5157 27.2767 20.9005 26.0918 20.1713 24.7246C19.4877 23.3574 18.6902 21.8307 17.7787 20.1445C17.323 24.793 17.0495 28.5755 16.9584 31.4922C16.8673 34.3633 16.8673 36.5964 16.9584 38.1914C17.0495 40.1055 17.1863 41.4954 17.3686 42.3613C17.642 43.1361 18.0749 44.002 18.6674 44.959C19.1687 45.7793 19.8523 46.7591 20.7182 47.8984C21.6296 48.9922 22.7917 50.2227 24.2045 51.5898C23.2019 51.5898 22.1537 51.5898 21.06 51.5898C19.9662 51.5898 18.9636 51.6126 18.0521 51.6582C16.9584 51.7038 15.8874 51.7266 14.8393 51.7266C13.7455 51.7721 12.4695 51.8405 11.0111 51.9316C9.73509 52.0228 8.2084 52.1139 6.43105 52.2051C4.65371 52.2962 2.60293 52.4557 0.278709 52.6836C1.28131 52.0456 2.10163 51.4303 2.73965 50.8379C3.37767 50.1999 3.87897 49.6302 4.24355 49.1289C4.69928 48.5365 5.04108 47.944 5.26894 47.3516C5.40566 46.987 5.51959 46.1895 5.61074 44.959C5.74746 43.7285 5.86139 42.2246 5.95254 40.4473C6.08926 38.6699 6.1804 36.6875 6.22598 34.5C6.31712 32.3125 6.38548 30.1022 6.43105 27.8691C6.5222 25.5905 6.59056 23.3802 6.63613 21.2383C6.6817 19.0508 6.70449 17.0911 6.70449 15.3594C6.75006 13.582 6.77285 12.1009 6.77285 10.916C6.77285 9.73112 6.77285 8.97917 6.77285 8.66016C6.63613 7.97656 6.43105 7.29297 6.15762 6.60938C5.92975 6.01693 5.56517 5.40169 5.06387 4.76367C4.56256 4.12565 3.90176 3.5332 3.08144 2.98633ZM86.8682 25.75C87.7796 25.7956 88.6683 25.8184 89.5342 25.8184C90.4001 25.7728 91.1748 25.7272 91.8584 25.6816C92.6331 25.6361 93.3623 25.5677 94.0459 25.4766L96.7119 25.2715C97.6234 25.2259 98.7399 25.1803 100.062 25.1348C101.383 25.0892 102.978 25.0436 104.847 24.998C103.844 25.3626 102.978 25.7728 102.249 26.2285C101.565 26.6842 100.996 27.0944 100.54 27.459C100.039 27.9147 99.6058 28.3477 99.2412 28.7578C98.8311 29.3047 98.3981 30.0111 97.9424 30.877C97.5322 31.6973 97.0765 32.5632 96.5752 33.4746C96.0739 34.3861 95.527 35.3203 94.9346 36.2773C94.3877 37.1888 93.7725 38.0091 93.0889 38.7383C92.6787 39.194 92.2458 39.6725 91.79 40.1738C91.4255 40.6296 90.9925 41.1309 90.4912 41.6777C89.9899 42.2246 89.4886 42.7487 88.9873 43.25C90.1266 44.526 91.152 45.597 92.0635 46.4629C93.0205 47.3288 93.818 48.0124 94.4561 48.5137C95.2308 49.1517 95.8916 49.653 96.4385 50.0176C96.9854 50.3822 97.6234 50.7467 98.3525 51.1113C98.945 51.4303 99.6514 51.7721 100.472 52.1367C101.292 52.5013 102.203 52.8659 103.206 53.2305C98.1475 53.5951 94.2282 53.8457 91.4482 53.9824C88.6683 54.1647 86.6403 54.3014 85.3643 54.3926C83.8604 54.5293 82.9489 54.5977 82.6299 54.5977C82.5387 54.6432 82.6299 54.5521 82.9033 54.3242C83.1768 54.1419 83.4958 53.8685 83.8604 53.5039C84.2249 53.1849 84.5667 52.7975 84.8857 52.3418C85.2048 51.9316 85.3643 51.4987 85.3643 51.043C85.3643 50.6784 85.3415 50.291 85.2959 49.8809C85.2503 49.5163 85.182 49.1061 85.0908 48.6504C84.9997 48.1947 84.8402 47.7161 84.6123 47.2148C83.7008 48.6732 82.5615 49.7669 81.1943 50.4961C79.8271 51.2253 78.5055 51.7493 77.2295 52.0684C75.7256 52.4329 74.1989 52.5924 72.6494 52.5469C68.4567 52.2734 65.5628 51.2025 63.9678 49.334C62.4183 47.4655 61.7575 44.7311 61.9854 41.1309C62.1676 39.7181 62.6006 38.1686 63.2842 36.4824C63.8766 35.0241 64.7425 33.3607 65.8818 31.4922C67.0667 29.6237 68.7301 27.5957 70.8721 25.4082C68.5934 22.765 66.8844 20.3952 65.7451 18.2988C64.6514 16.1569 63.8766 14.334 63.4209 12.8301C62.9196 11.0527 62.7145 9.50326 62.8057 8.18164C63.1247 6.13086 63.7171 4.60417 64.583 3.60156C65.4945 2.59896 66.5199 1.91536 67.6592 1.55078C68.8441 1.1862 70.0973 1.00391 71.4189 1.00391C72.7406 1.00391 73.971 0.958333 75.1104 0.867188C76.2497 0.776042 77.5485 0.798828 79.0068 0.935547C80.5107 1.02669 81.9463 1.25456 83.3135 1.61914C84.6807 1.93815 85.8883 2.41667 86.9365 3.05469C87.9847 3.64714 88.6683 4.39909 88.9873 5.31055C89.3063 6.22201 89.5342 7.11068 89.6709 7.97656C89.8076 8.79688 89.762 9.66276 89.5342 10.5742C89.3519 11.4857 88.9189 12.4655 88.2354 13.5137C87.5518 14.5163 86.5719 15.6328 85.2959 16.8633C84.3389 17.9115 83.3818 18.9141 82.4248 19.8711C81.6045 20.6914 80.693 21.5573 79.6904 22.4688C78.6878 23.3802 77.7308 24.1777 76.8193 24.8613C77.2751 25.7272 77.7536 26.5703 78.2549 27.3906C78.7562 28.1654 79.2119 28.8717 79.6221 29.5098C80.1234 30.2845 80.6019 31.0137 81.0576 31.6973C81.6045 32.6087 82.1742 33.4974 82.7666 34.3633C83.4046 35.2292 83.9743 35.9811 84.4756 36.6191C85.0225 37.2572 85.4782 37.7585 85.8428 38.123C86.2074 38.4876 86.4352 38.6243 86.5264 38.5332C86.5719 38.4421 86.777 38.0091 87.1416 37.2344C87.5518 36.4596 87.9847 35.5938 88.4404 34.6367C88.9417 33.6341 89.3747 32.6543 89.7393 31.6973C90.1494 30.7402 90.4001 30.0339 90.4912 29.5781C90.4456 29.2135 90.3089 28.8034 90.0811 28.3477C89.8532 27.9831 89.4886 27.5957 88.9873 27.1855C88.5316 26.7298 87.8252 26.2513 86.8682 25.75ZM73.6064 19.9395C75.8851 17.3418 77.5485 15.2454 78.5967 13.6504C79.6449 12.0553 80.3512 10.8021 80.7158 9.89062C81.1715 8.84245 81.2855 8.06771 81.0576 7.56641C80.6475 7.0651 80.0094 6.60938 79.1436 6.19922C78.2777 5.78906 77.3434 5.58398 76.3408 5.58398C75.3382 5.53841 74.3128 5.74349 73.2646 6.19922C72.262 6.60938 71.3962 7.42969 70.667 8.66016C70.3936 9.2526 70.3024 10.0729 70.3936 11.1211C70.4847 12.0326 70.7354 13.1947 71.1455 14.6074C71.6012 16.0202 72.4215 17.7975 73.6064 19.9395ZM72.2393 41.3359C72.8317 42.2018 73.5609 42.7943 74.4268 43.1133C75.2015 43.4323 76.1813 43.5007 77.3662 43.3184C78.5967 43.1361 80.0778 42.4525 81.8096 41.2676C81.126 40.3561 80.5335 39.5358 80.0322 38.8066C79.5309 38.0319 79.098 37.3939 78.7334 36.8926C78.3232 36.3001 77.9814 35.7988 77.708 35.3887C77.4346 34.9785 77.0928 34.4772 76.6826 33.8848C76.318 33.3835 75.8851 32.7682 75.3838 32.0391C74.8825 31.3099 74.29 30.444 73.6064 29.4414C72.1481 31.1732 71.2139 33.0189 70.8037 34.9785C70.4391 36.8926 70.9176 39.0117 72.2393 41.3359ZM97.3053 3.05469C99.037 3.46484 100.587 3.78385 101.954 4.01172C103.366 4.19401 104.551 4.33073 105.508 4.42188C106.648 4.55859 107.65 4.60417 108.516 4.55859C109.61 4.51302 110.977 4.35352 112.618 4.08008C114.258 3.80664 115.99 3.5332 117.813 3.25977C119.636 2.98633 121.436 2.75846 123.213 2.57617C124.991 2.39388 126.54 2.37109 127.862 2.50781C129.184 2.64453 130.573 2.96354 132.032 3.46484C133.49 3.92057 134.857 4.55859 136.133 5.37891C137.409 6.15365 138.503 7.11068 139.415 8.25C140.372 9.38932 140.964 10.7109 141.192 12.2148C141.42 13.6732 141.283 15.2454 140.782 16.9316C140.281 18.5723 139.483 20.1901 138.389 21.7852C137.296 23.3346 135.928 24.7702 134.288 26.0918C132.647 27.4134 130.824 28.4844 128.819 29.3047C127.224 29.8971 125.492 30.3529 123.624 30.6719C122.029 30.9453 120.16 31.1276 118.018 31.2188C115.922 31.2643 113.689 31.0365 111.319 30.5352C111 31.8568 110.818 33.0872 110.772 34.2266C110.772 35.3203 110.818 36.3001 110.909 37.166C111.046 38.1686 111.228 39.0801 111.456 39.9004C111.729 40.7207 112.071 41.6777 112.481 42.7715C112.846 43.6829 113.256 44.7995 113.712 46.1211C114.213 47.3971 114.805 48.8327 115.489 50.4277C114.669 50.4277 113.871 50.4505 113.096 50.4961C112.322 50.4961 111.615 50.5189 110.977 50.5645C110.248 50.61 109.564 50.6556 108.926 50.7012C108.197 50.7467 107.377 50.8379 106.465 50.9746C105.691 51.0658 104.711 51.2025 103.526 51.3848C102.387 51.5671 101.088 51.7949 99.6295 52.0684C100.587 50.7012 101.338 49.4479 101.885 48.3086C102.478 47.1237 102.911 46.0983 103.184 45.2324C103.503 44.2298 103.708 43.3184 103.799 42.498C103.845 41.8145 103.845 40.6068 103.799 38.875C103.799 37.1432 103.777 35.138 103.731 32.8594C103.685 30.5807 103.617 28.1882 103.526 25.6816C103.435 23.1751 103.321 20.8281 103.184 18.6406C103.047 16.4076 102.888 14.4935 102.706 12.8984C102.569 11.3034 102.432 10.2552 102.296 9.75391C102.113 9.16146 101.794 8.52344 101.338 7.83984C100.974 7.2474 100.45 6.5638 99.7662 5.78906C99.1282 4.96875 98.3079 4.05729 97.3053 3.05469ZM111.456 16.5215C111.41 16.9772 111.387 17.4557 111.387 17.957C111.387 18.9141 111.456 20.1445 111.592 21.6484C111.911 22.4232 112.299 23.0612 112.754 23.5625C113.256 24.0638 113.78 24.4512 114.327 24.7246C114.919 24.998 115.512 25.1803 116.104 25.2715C116.697 25.3626 117.289 25.4082 117.881 25.4082C119.249 25.3626 120.684 25.0436 122.188 24.4512C124.193 23.5853 125.606 22.3548 126.426 20.7598C127.247 19.1647 127.68 17.5241 127.725 15.8379C127.771 14.1517 127.475 12.6022 126.837 11.1895C126.244 9.77669 125.515 8.81966 124.649 8.31836C123.92 7.99935 122.986 7.86263 121.846 7.9082C120.844 7.95378 119.59 8.20443 118.087 8.66016C116.583 9.11589 114.737 9.9362 112.549 11.1211C112.322 11.9414 112.139 12.6706 112.003 13.3086C111.866 13.9466 111.752 14.5163 111.661 15.0176C111.57 15.5645 111.501 16.0658 111.456 16.5215Z"/>
</svg>
